<svg width="1132" height="894" viewBox="0 0 1132 894" fill="none" xmlns="http://www.w3.org/2000/svg">
<g filter="url(#filter0_d_43_32)">
<path d="M1123.37 471.175H99.7072C106.774 459.442 113.886 447.365 120.48 434.248C150.13 375.271 122.976 303.141 137.458 238.736C152.631 171.267 206.64 134.937 269.158 120.651C273.323 119.697 277.527 118.844 281.76 118.086C304.155 114.067 327.952 113.523 348.502 102.805C364.598 94.4094 377.505 81.3674 389.432 67.9343C412.468 41.99 434.107 10.4938 470.273 2.8511C512.664 -6.1079 555.976 8.14554 598.45 16.7159C640.342 25.1685 679.943 32.5243 722.558 25.4954C760.472 19.2411 797.705 6.90449 836.579 12.5528C886.615 19.8257 928.343 50.933 967.091 81.2872C1016.96 120.348 1019.93 169.961 1010.97 229.452C1009.85 236.894 1008.75 244.494 1007.86 252.148C1006.85 260.78 1006.1 269.484 1005.84 278.116C1005.09 303.795 1008.77 328.825 1023.41 349.408C1028.43 356.472 1034.31 362.731 1040.63 368.578C1042.78 370.57 1044.98 372.511 1047.21 374.419C1065.58 390.094 1086.36 403.591 1100.79 423.418C1109.91 435.956 1116.48 448.931 1120.77 462.112C1121.75 465.122 1122.62 468.146 1123.37 471.175Z" fill="#BDE9FF"/>
<path d="M1123.37 471.175C1122.62 468.146 1121.75 465.122 1120.77 462.112C1116.48 448.931 1109.91 435.956 1100.79 423.418C1089.03 407.27 1073.07 395.32 1057.63 382.974C1042.25 382.574 1025.52 382.319 1007.86 382.319C925.872 382.319 953.342 345.679 858.725 341.371C764.107 337.063 748.155 355.536 624.225 384.697C500.295 413.858 468.415 401.16 287.079 408.489C219.07 411.238 169.824 394.203 134.833 371.837C133.914 393.583 130.337 414.643 120.48 434.248C113.886 447.365 106.774 459.442 99.7072 471.176L1123.37 471.175Z" fill="#78C1E5"/>
<path d="M467.086 240.014L740.684 434.025L750.774 428.2H759.945L756.715 422.801L647.233 240.014H802.912C779.118 334.439 756.715 422.801 756.715 422.801H764.674L759.945 428.2L769.242 430.978L943.555 240.014H1009.54C1009.78 238.271 1010.03 236.533 1010.29 234.803H948.311L1013.7 163.163C1012.86 156.3 1011.55 149.617 1009.7 143.117L929.374 234.803H818.053L841.378 140.781H1009C1007.4 135.565 1005.43 130.469 1003.05 125.493H845.171L870.804 22.1704C866.62 20.6208 862.378 19.2193 858.075 17.9806C855.742 28.7443 845.17 71.5184 831.674 125.492H578.64L503.982 0.841477C499.73 0.714563 495.483 0.743849 491.242 0.953626L566.893 125.492H330.824C325.321 121.511 319.974 117.642 314.799 113.896C307.768 115.093 300.656 115.991 293.599 116.99L305.59 125.492H253.599C240.233 129.457 227.401 134.521 215.422 140.781H327.148L459.741 234.803H138.598C138.2 236.353 137.815 237.915 137.459 239.5C137.42 239.671 137.384 239.843 137.345 240.014H467.086ZM750.769 428.195C749.753 427.466 619.441 333.723 489.463 240.014H636.459L750.769 428.195ZM924.809 240.014L774.075 412.073L816.761 240.014H924.809ZM827.848 140.781C820.396 170.542 812.252 202.929 804.223 234.803H644.112L587.798 140.781H827.848ZM351.97 140.781H576.18L633.293 234.803H482.238C436.604 201.902 391.31 169.218 351.97 140.781Z" fill="#A7B2B9"/>
<path d="M1127 509.714C1121.52 601.507 1032.66 685.277 940.641 699.518C908.104 704.896 873.158 692.813 841.707 700.952C761.325 717.037 695.637 781.85 611.779 785.847C528.19 792.534 445.786 760.546 363.708 753.81C282.127 747.258 195.887 770.57 119.513 733.619C59.1698 704.684 44.0251 637.695 53.8642 577.277C60.5866 535.226 79.2122 505.91 99.7047 471.943H1123.37C1126.44 484.431 1127.59 496.994 1127 509.714Z" fill="#19767B"/>
<path d="M205.423 345.749C205.423 345.749 202.365 495.318 205.423 495.318C208.48 495.318 214.596 495.318 214.596 495.318L209.9 351.076L205.423 345.749Z" fill="#BBC9D1"/>
<path d="M403.287 345.749C403.287 345.749 400.229 495.318 403.287 495.318C406.344 495.318 412.46 495.318 412.46 495.318L407.764 351.076L403.287 345.749Z" fill="#BBC9D1"/>
<path d="M923.826 330.464C923.826 330.464 920.768 480.033 923.826 480.033C926.884 480.033 932.999 480.033 932.999 480.033L928.303 335.791L923.826 330.464Z" fill="#BBC9D1"/>
<path d="M1050.53 476.218C1050.53 476.218 1044.41 476.218 1041.35 476.218C1041.02 476.218 1040.75 474.403 1040.55 471.175C1039.57 455.319 1040.08 405.336 1040.63 368.578C1042.78 370.569 1044.98 372.51 1047.21 374.419L1050.36 471.175L1050.53 476.218Z" fill="#BBC9D1"/>
<path d="M66.8671 532.152C61.0933 545.889 56.5137 560.628 53.8637 577.277C53.6842 578.405 53.5125 579.534 53.3518 580.663C52.376 587.431 51.7086 594.235 51.3733 601.026C48.7005 655.112 67.0959 708.229 119.513 733.618C130.923 739.145 142.57 743.323 154.397 746.454C154.51 746.41 220.711 720.141 220.711 697.19C220.711 674.219 203.512 637.604 176.703 593.749C159.534 565.663 104.34 544.058 66.8671 532.152Z" fill="#166A6F"/>
<path d="M611.779 785.847C592.858 787.373 573.927 786.893 555.014 785.164C534.257 783.266 513.524 779.861 492.855 775.95C484.323 774.336 475.8 772.634 467.292 770.916C432.477 763.889 397.887 756.584 363.708 753.81C350.733 752.756 337.605 752.472 324.394 752.585C355.545 721.71 395.52 684.137 395.52 684.137C395.52 684.137 417.371 729.04 483.58 733.774C549.789 738.508 604.967 765.538 611.779 785.847Z" fill="#166A6F"/>
<path d="M1127 509.714C1126.72 515.815 1126.03 521.901 1124.97 527.951C1040.83 504.043 955.262 478.971 893.775 460.855C892.936 458.591 890.762 452.722 889.955 450.537C948.914 462.248 1067.56 485.817 1127.03 497.629C1127.2 501.658 1127.19 505.69 1127 509.714Z" fill="#AEADAE"/>
<path d="M1127 509.714C1053.48 492.317 921.595 461.114 849.441 444.038L1121.56 462.568C1126.39 477.97 1127.75 493.671 1127 509.714Z" fill="#E5DFE1"/>
<path d="M574.541 474.639L53.3517 580.663C53.5124 579.534 53.6841 578.406 53.8636 577.277C58.3137 549.319 65.9431 511.502 90.8973 486.548L399.002 471.942L534.169 457.82H565.121L573.032 471.942L574.541 474.639Z" fill="#E5DFE1"/>
<path d="M466.934 482.205C469.225 478.915 471.276 474.023 464.381 472.83C459.792 477.418 462.144 482.197 463.563 484.255C461.498 483.549 455.773 482.151 453.812 487.487C460.659 490.5 463.403 486.407 464.116 484.992C464.279 485.192 464.381 485.3 464.381 485.3C464.381 485.3 464.551 485.129 464.826 484.829C466.77 485.359 473.737 486.657 476.26 478.947C478.409 472.38 471.063 478.446 466.934 482.205Z" fill="#93C74B"/>
<path d="M574.54 474.639L571.801 483.81L51.3729 601.026C51.7079 594.236 52.3756 587.432 53.3514 580.663L574.54 474.639Z" fill="#AEADAE"/>
<path d="M424.084 319.487C420.565 317.196 417.636 313.637 417.119 309.47C417.019 308.664 417.072 307.712 417.728 307.234C418.051 306.999 418.461 306.928 418.856 306.88C423.27 306.345 427.897 308.037 430.926 311.291C432.977 313.496 435.823 318.479 434.45 321.621C432.88 325.215 426.219 320.877 424.084 319.487Z" fill="#93C74B"/>
<path d="M436.236 289.961C436.777 289.162 437.431 288.328 438.373 288.122C439.613 287.851 440.773 288.769 441.684 289.653C444.163 292.058 446.421 294.69 448.42 297.506C452.046 302.615 454.843 308.421 455.762 314.618C456.681 320.814 455.601 327.427 452.073 332.603C451.264 333.79 450.232 334.96 448.833 335.282C447.342 335.625 445.826 334.922 444.477 334.199C441.061 332.368 437.624 330.292 434.477 328.034C432.185 326.39 431.493 322.668 430.881 320.055C429.342 313.49 429.566 306.52 431.489 300.059C432.553 296.48 434.143 293.055 436.236 289.961Z" fill="#52A756"/>
<path d="M748.479 436.867V440.813L135.054 353.96C134.855 339.336 133.939 324.506 133.357 309.692C136.555 310.958 140.077 311.48 143.498 311.807C146.447 312.075 149.664 312.344 152.344 313.416C158.51 315.292 164.676 316.901 170.841 319.045C179.956 321.994 189.07 323.871 198.453 326.283C205.691 327.892 212.661 326.015 219.899 327.087C228.21 328.696 235.448 332.449 244.294 331.645C246.975 331.376 249.656 331.913 252.068 332.985C261.987 336.47 272.174 337.274 282.629 337.542C286.382 337.81 289.867 340.491 293.352 341.831C304.075 345.584 315.066 346.657 325.253 352.554C326.057 353.09 327.665 352.554 328.202 353.09C337.584 360.06 348.307 361.937 359.03 365.154C362.515 366.226 366 368.371 369.753 369.443C371.362 369.711 372.702 369.175 374.311 369.443C384.765 372.124 394.148 375.877 404.871 375.877C406.48 375.877 407.82 376.681 409.428 377.217C422.564 379.898 434.627 379.898 447.763 382.042C451.516 382.579 455.001 384.187 458.486 384.455C471.89 384.991 484.489 387.94 498.161 390.621C502.718 391.425 507.276 390.353 511.833 391.157C519.875 392.229 527.381 394.374 534.888 398.395C536.228 399.199 537.836 398.395 539.445 398.663C543.734 399.467 547.487 400.003 551.776 400.271C552.848 400.271 553.653 401.612 554.725 401.344C559.014 401.075 562.499 402.684 567.324 404.024C585.822 409.654 604.319 411.53 623.62 412.603C628.446 412.871 632.735 415.82 637.292 416.356C648.283 417.696 659.274 416.088 669.461 421.717C669.729 421.717 669.193 422.79 669.461 422.79C673.75 425.202 678.308 427.079 683.133 427.347C696.537 428.419 709.404 431.636 722.808 433.513C727.365 434.317 732.191 433.513 736.748 433.781C740.89 433.988 744.555 435.634 748.479 436.867Z" fill="#CEC9CA"/>
<path d="M748.479 427.053V436.867C744.555 435.634 740.89 433.988 736.748 433.782C732.191 433.513 727.366 434.318 722.808 433.513C709.405 431.637 696.537 428.42 683.133 427.348C678.308 427.08 673.751 425.203 669.462 422.79C669.194 422.79 669.73 421.718 669.462 421.718C659.275 416.089 648.284 417.697 637.293 416.357C632.735 415.82 628.446 412.872 623.621 412.604C604.319 411.531 585.822 409.655 567.325 404.025C562.5 402.685 559.015 401.076 554.725 401.344C553.653 401.612 552.849 400.272 551.777 400.272C547.488 400.004 543.734 399.468 539.445 398.664C537.837 398.396 536.228 399.2 534.888 398.396C527.382 394.375 519.876 392.23 511.833 391.158C507.276 390.354 502.719 391.426 498.162 390.621C484.49 387.941 471.89 384.992 458.487 384.456C455.002 384.188 451.517 382.579 447.764 382.043C434.628 379.898 422.565 379.898 409.429 377.218C407.82 376.682 406.48 375.877 404.872 375.877C394.149 375.877 384.766 372.124 374.311 369.444C372.703 369.176 371.362 369.712 369.754 369.444C366.001 368.371 362.516 366.227 359.031 365.155C348.308 361.938 337.585 360.061 328.202 353.091C327.666 352.555 326.057 353.091 325.253 352.555C315.066 346.657 304.075 345.585 293.352 341.832C289.867 340.492 286.382 337.811 282.629 337.543C272.175 337.275 261.988 336.471 252.069 332.986C249.656 331.913 246.975 331.377 244.295 331.645C235.448 332.449 228.21 328.697 219.9 327.088C212.662 326.016 205.692 327.892 198.454 326.284C189.071 323.871 179.957 321.995 170.842 319.046C164.676 316.901 158.51 315.293 152.345 313.417C149.664 312.344 146.447 312.076 143.498 311.808C140.078 311.481 136.555 310.958 133.357 309.693C132.741 294.021 132.497 278.369 133.872 263C134.58 255.081 135.719 247.234 137.459 239.5C138.11 236.6 138.834 233.758 139.63 230.973L226.637 258.992L287.782 278.685L748.479 427.053Z" fill="#E5DFE1"/>
<path d="M136.82 226.137C134.484 221.211 133.673 215.726 132.209 210.475C130.614 205.05 128.265 198.446 131.989 193.416C133.822 191.015 136.775 189.8 139.597 188.72C148.87 184.226 154.931 189.291 159.055 197.552C162.12 202.997 165.193 208.647 165.939 214.85C166.625 241.176 151.697 254.668 136.82 226.137Z" fill="#52A756"/>
<path d="M177.833 227.224C188.639 213.976 205.74 205.961 222.927 207.358C239.542 207.231 234.777 210.923 230.647 223.086C236.111 222.776 252.12 224.439 248.089 232.92C239.318 239.528 227.772 240.326 217.498 243.006C208.538 248.243 206.245 254.145 193.867 253.415C176.514 251.931 162.075 244.399 177.833 227.224Z" fill="#52A756"/>
<path d="M155.464 230.071C154.922 214.548 151.339 193.259 161.304 180.335C165.185 175.545 170.82 172.495 175.047 168.008C178.24 164.134 182.115 161.447 186.165 165.732C193.494 172.163 195.42 181.995 196.579 191.262C199.352 207.8 202.61 228.673 188.527 240.967C184.471 244.049 180.08 247.607 174.682 247.182C171.017 247.234 162.571 248.971 160.362 245.457C157.579 241.03 156.136 235.194 155.464 230.071Z" fill="#93C74B"/>
<path d="M262.909 273.949C258.688 267.527 253.202 260.795 253.675 252.691C253.646 251.276 254.441 250.12 255.756 249.61C261.315 247.289 268.898 243.496 274.528 247.22C277.704 249.149 280.928 251.115 283.426 253.865C288.525 260.114 298.3 278.91 290.129 285.125C284.076 287.997 276.254 285.255 270.062 283.902C266.501 282.965 264.831 276.903 262.909 273.949Z" fill="#52A756"/>
<path d="M330.415 279.235C335.611 275.291 341.543 268.776 338.6 261.873C324.344 262.237 309.489 260.035 297.062 268.446C291.977 270.764 281.513 279.284 290.77 283.032C313.526 293.21 310.429 295.941 330.415 279.235Z" fill="#52A756"/>
<path d="M282.744 268.146C281.605 261.54 281.313 254.806 280.106 248.212C279.179 243.144 277.706 238.039 278.358 232.928C279.116 226.978 282.648 221.8 286.078 216.879C292.849 224.926 298.63 233.806 303.25 243.254C306.773 250.459 309.673 258.513 308.08 266.373C306.673 273.314 301.081 281.238 294.553 284.308C286.16 288.256 283.677 273.557 282.744 268.146Z" fill="#93C74B"/>
<path d="M366.272 294.131C375.454 290.323 385.77 289.302 395.52 291.237C392.056 292.794 389.275 295.538 386.781 298.401C384.287 301.265 381.981 304.323 379.096 306.793C376.212 309.262 372.607 311.136 368.811 311.074C368.421 311.067 366.897 309.064 366.516 308.727C365.63 307.939 364.682 307.219 363.687 306.573C361.946 305.444 360.006 304.473 359.133 302.457C357.221 298.043 363.086 295.453 366.272 294.131Z" fill="#93C74B"/>
<path d="M361.399 293.59C360.011 290.249 358.082 287.043 355.263 284.774C352.461 282.519 348.93 281.317 345.373 280.788C341.815 280.258 338.197 280.361 334.602 280.465C334.412 285.331 337.326 289.75 340.483 293.457C343.64 297.165 347.248 300.694 348.952 305.255L350.98 305.035C353.899 305.619 356.879 305.896 359.856 305.861C360.596 305.853 361.375 305.813 362.001 305.419C363.059 304.753 363.316 303.333 363.32 302.084C363.331 299.161 362.52 296.289 361.399 293.59Z" fill="#52A756"/>
<path d="M381.845 287.961C381.633 283.727 380.393 279.623 379.292 275.528C378.191 271.434 377.213 267.221 377.544 262.995C373.515 268.539 367.784 272.568 362.138 276.454C359.738 278.107 357.27 279.817 355.687 282.263C352.376 287.38 353.777 294.193 351.941 300.005L354.709 302.192C358.653 303.696 362.812 304.854 367.032 304.726C371.251 304.598 375.565 303.047 378.337 299.863C381.121 296.665 382.056 292.196 381.845 287.961Z" fill="#93C74B"/>
<path d="M450.216 318.964C449.71 314.828 450.235 310.608 451.375 306.6C453.554 298.933 457.896 292.091 462.182 285.372C469.434 291.072 474.044 299.479 477.528 308.019C479.495 312.84 481.193 318.044 480.313 323.176C479.704 326.731 477.804 330.083 474.948 332.284C472.091 334.486 468.284 335.471 464.751 334.749C461.717 334.128 457.515 332.194 455.072 330.156C452.029 327.615 450.675 322.714 450.216 318.964Z" fill="#93C74B"/>
<path d="M490.737 343.571C495.309 342.068 499.661 339.435 502.354 335.447C503.549 333.678 504.383 331.305 503.317 329.456C502.412 327.885 500.479 327.277 498.706 326.901C495.139 326.144 491.486 325.794 487.84 325.859C483.743 325.932 479.548 326.566 475.987 328.594C472.426 330.623 469.589 334.244 469.332 338.334C469.095 342.104 471.85 347.44 476.19 346.783C480.898 346.069 486.197 345.063 490.737 343.571Z" fill="#52A756"/>
<path d="M754.404 428.01C754.404 432.023 748.479 433.932 748.479 433.932L133.871 262.999C134.579 255.08 135.719 247.233 137.458 239.5C138.11 236.599 138.833 233.757 139.63 230.972C140.198 228.969 140.804 226.994 141.447 225.05C184.72 241.105 223.741 256.096 226.636 258.991C229.113 261.468 255.309 269.4 287.781 278.684C342.884 294.433 416.055 314.075 422.076 317.552C431.641 323.074 559.856 360.712 568.842 365.899C577.831 371.089 737.014 420.174 748.479 422.085C759.945 423.997 754.404 423.997 754.404 428.01Z" fill="#DAD8D9"/>
<path d="M523.755 369.618L148.374 265.488C147.589 265.271 146.776 265.73 146.559 266.515C146.341 267.3 146.801 268.112 147.586 268.33L522.966 372.46C523.751 372.677 524.564 372.218 524.781 371.433C524.999 370.648 524.539 369.836 523.755 369.618Z" fill="#A8908E"/>
<path d="M351.966 353.53L351.75 594.459C351.75 594.459 354.44 595.029 358.305 595.29V353.783C356.148 353.006 354.031 354.568 351.966 353.53Z" fill="#766563"/>
<path d="M358.305 353.783V595.29C365.404 595.769 376.471 595.206 382.135 588.153V358.968C375.122 354.008 367.382 350.377 358.305 353.783Z" fill="#A8908E"/>
<path d="M194.604 184.707C194.536 181.951 194.051 179.33 193.301 176.982C192.551 174.63 191.54 172.552 190.448 170.814C189.356 169.074 188.189 167.671 187.122 166.604C186.055 165.535 185.095 164.799 184.409 164.338C183.722 163.875 183.306 163.685 183.306 163.685C183.306 163.685 183.295 163.942 183.273 164.444C183.254 164.94 183.231 165.67 183.209 166.613C183.163 168.506 183.131 171.236 183.112 174.766C183.086 178.308 183.094 182.637 182.96 188.037C182.821 193.444 182.567 199.942 181.806 208.059C184.852 206.179 187.35 203.885 189.293 201.346C191.235 198.807 192.598 196.02 193.462 193.184C194.326 190.348 194.674 187.461 194.604 184.707Z" fill="#BCD845"/>
<path d="M305.349 245.169C304.981 241.986 304.246 238.915 303.226 236.085C302.209 233.253 300.908 230.667 299.464 228.417C298.022 226.165 296.441 224.251 294.894 222.698C293.347 221.143 291.836 219.949 290.525 219.071C289.212 218.191 288.098 217.63 287.323 217.289C286.547 216.948 286.107 216.829 286.107 216.829C286.107 216.829 286.273 217.018 286.591 217.402C286.91 217.787 287.381 218.369 287.985 219.169C289.188 220.769 290.931 223.234 292.886 226.819C294.831 230.41 296.969 235.138 298.809 241.329C300.651 247.516 302.176 255.18 302.942 264.53C304.125 261.427 304.938 258.181 305.34 254.911C305.724 251.643 305.719 248.351 305.349 245.169Z" fill="#BCD845"/>
<path d="M382.674 272.95C381.706 269.813 380.427 267.309 379.401 265.602C378.373 263.893 377.599 262.978 377.599 262.978C377.599 262.978 377.469 263.637 377.383 264.961C377.297 266.285 377.257 268.275 377.396 270.948C377.522 273.623 377.846 276.983 378.292 281.07C378.503 283.112 378.751 285.34 378.918 287.745C379.005 288.95 379.053 290.192 379.059 291.475C379.06 292.756 379.008 294.079 378.802 295.393C379.004 295.224 379.204 295.048 379.402 294.864C379.501 294.77 379.599 294.676 379.697 294.583C379.788 294.482 379.879 294.382 379.969 294.283C380.149 294.08 380.326 293.871 380.5 293.657C380.664 293.44 380.821 293.217 380.977 292.991C381.299 292.539 381.559 292.063 381.825 291.579C382.081 291.094 382.301 290.597 382.516 290.093C383.33 288.075 383.767 285.972 383.946 283.941C384.297 279.863 383.635 276.078 382.674 272.95Z" fill="#BCD845"/>
<path d="M479.133 307.48C478.428 304.977 477.436 302.652 476.309 300.551C475.18 298.447 473.917 296.563 472.635 294.906C470.066 291.59 467.433 289.186 465.477 287.624C463.517 286.06 462.225 285.333 462.225 285.333C462.225 285.333 462.496 286.107 463.178 287.616C463.857 289.126 464.953 291.369 466.522 294.368C468.079 297.373 470.143 301.124 472.453 305.803C473.033 306.972 473.606 308.206 474.195 309.5C474.469 310.152 474.783 310.811 475.053 311.497C475.194 311.838 475.336 312.184 475.481 312.533C475.615 312.884 475.752 313.238 475.89 313.597C476.974 316.47 477.947 319.643 478.364 323.176C479.564 320.824 480.125 318.079 480.187 315.376C480.253 312.663 479.836 309.978 479.133 307.48Z" fill="#BCD845"/>
<path d="M489.441 631.015L473.349 639.659V772.134C479.845 773.436 486.347 774.719 492.856 775.95C496.269 741.749 489.441 631.015 489.441 631.015Z" fill="#A8908E"/>
<path d="M467.293 642.913V770.916C469.311 771.323 471.33 771.73 473.349 772.134V639.659L467.293 642.913Z" fill="#766563"/>
<path d="M620.598 472.324L57.8004 674.941C68.3126 700.551 90.1104 723.483 118.367 737.169C184.735 769.315 259.086 752.689 330.594 752.948L690.974 472.324L620.598 472.324Z" fill="#E5DFE1"/>
<path d="M313.912 752.75C313.912 752.75 409.758 676.721 417.929 672.003C426.101 667.285 429.013 662.661 429.013 662.661C429.013 662.661 387.206 687.85 375.534 699.522C363.862 711.194 308.121 744.24 292.126 748.062C276.131 751.884 268.104 754.733 268.104 754.733L313.912 752.75Z" fill="#D5D4D5"/>
<path d="M139.593 691.441C156.978 691.441 171.071 685.726 171.071 678.676C171.071 671.626 156.978 665.911 139.593 665.911C122.208 665.911 108.115 671.626 108.115 678.676C108.115 685.726 122.208 691.441 139.593 691.441Z" fill="#474546"/>
<path d="M274.395 630.861C291.779 630.861 305.873 625.146 305.873 618.096C305.873 611.046 291.779 605.331 274.395 605.331C257.01 605.331 242.917 611.046 242.917 618.096C242.917 625.146 257.01 630.861 274.395 630.861Z" fill="#474546"/>
<path d="M295.672 717.153C322.516 717.153 344.277 708.328 344.277 697.443C344.277 686.557 322.516 677.733 295.672 677.733C268.828 677.733 247.067 686.557 247.067 697.443C247.067 708.328 268.828 717.153 295.672 717.153Z" fill="#474546"/>
<path d="M407.194 653.704C428.327 653.704 445.459 646.756 445.459 638.186C445.459 629.616 428.327 622.669 407.194 622.669C386.06 622.669 368.928 629.616 368.928 638.186C368.928 646.756 386.06 653.704 407.194 653.704Z" fill="#474546"/>
<path d="M500.81 589.58C512.956 589.58 522.801 585.588 522.801 580.663C522.801 575.738 512.956 571.745 500.81 571.745C488.665 571.745 478.82 575.738 478.82 580.663C478.82 585.588 488.665 589.58 500.81 589.58Z" fill="#474546"/>
<path d="M406.047 572.629C418.192 572.629 428.037 568.636 428.037 563.711C428.037 558.786 418.192 554.794 406.047 554.794C393.902 554.794 384.056 558.786 384.056 563.711C384.056 568.636 393.902 572.629 406.047 572.629Z" fill="#474546"/>
<path d="M510.784 541.946C518.793 541.946 525.286 539.313 525.286 536.065C525.286 532.817 518.793 530.184 510.784 530.184C502.774 530.184 496.281 532.817 496.281 536.065C496.281 539.313 502.774 541.946 510.784 541.946Z" fill="#474546"/>
<path d="M548.429 565.192C558.602 565.192 566.848 561.848 566.848 557.724C566.848 553.599 558.602 550.255 548.429 550.255C538.257 550.255 530.011 553.599 530.011 557.724C530.011 561.848 538.257 565.192 548.429 565.192Z" fill="#474546"/>
<path d="M684.591 471.942L330.55 752.563C341.684 752.58 352.75 752.921 363.709 753.81C363.904 753.826 364.099 753.844 364.295 753.86C484.909 659.518 696.433 488.6 717.039 471.942L684.591 471.942Z" fill="#696969"/>
<path d="M373.536 754.733C373.536 754.733 450.586 696.72 460.354 686.952C470.122 677.184 521.541 635.348 527.537 629.351C533.534 623.354 543.197 610.659 543.197 610.659V604.779L353.529 753.137L373.536 754.733Z" fill="#545454"/>
<path d="M117.267 682.462C117.267 682.462 82.5813 676.729 91.4677 644.624C119.974 651.92 122.713 659.244 122.713 659.244C122.713 659.244 113.54 622.838 136.472 620.832C149.372 646.344 147.939 655.23 147.939 655.23C147.939 655.23 158.545 637.745 173.164 637.745C187.784 637.745 185.49 640.038 185.49 640.038C185.49 640.038 174.024 680.456 156.252 680.456C140.486 687.336 117.267 682.462 117.267 682.462Z" fill="#93C74B"/>
<path d="M263.825 696.795C263.825 696.795 250.561 710.841 259.734 726.321C278.08 726.321 287.253 712.848 287.253 712.848C287.253 712.848 300.725 718.581 313.912 715.141C313.912 703.102 309.038 703.102 309.038 703.102C309.038 703.102 331.398 711.128 337.131 705.395C342.864 699.662 349.17 690.489 349.17 690.489C349.17 690.489 327.149 681.558 317.638 687.049C329.104 675.583 343.15 669.277 343.15 669.277C343.15 669.277 324.231 672.716 314.198 670.996C323.085 653.224 317.883 650.221 317.883 650.221C317.883 650.221 299.292 654.657 299.292 665.55C290.406 643.191 295.566 629.145 295.566 629.145C295.566 629.145 271.2 654.657 277.22 677.733C251.707 671.57 235.082 684.137 235.082 684.137C235.082 684.137 246.703 696.795 263.825 696.795Z" fill="#93C74B"/>
<path d="M382.709 629.144C382.709 629.144 364.363 643.382 367.038 662.492C389.206 664.403 402.201 649.497 402.201 649.497C402.201 649.497 402.584 660.199 414.432 660.199C418.254 654.657 417.299 647.395 417.299 647.395C417.299 647.395 445.773 648.924 452.844 639.178C445.773 629.431 439.849 628.094 439.849 628.094C439.849 628.094 455.137 614.143 451.315 603.633C429.721 605.161 417.872 615.297 417.872 615.297C417.872 615.297 417.872 587.389 397.615 587.389C384.62 612.423 388.443 620.45 388.443 620.45C388.443 620.45 371.545 609.748 362.221 613.761C357.101 629.049 382.709 629.144 382.709 629.144Z" fill="#93C74B"/>
<path d="M247.121 611.372C247.121 611.372 235.082 614.239 235.082 630.291C248.819 638.223 268.907 623.125 268.907 623.125C268.907 623.125 269.772 626.866 275.5 632.595C281.095 627 281.095 623.412 281.095 623.412C281.095 623.412 282.953 641.184 305.312 637.744C313.938 632.764 301.872 619.112 301.872 619.112C301.872 619.112 317.718 615.672 325.704 605.352C319.665 599.313 304.452 598.759 304.452 598.759C304.452 598.759 310.185 567.514 289.259 562.928C273.78 586.146 272.347 591.88 272.347 591.88C272.347 591.88 254.574 574.681 237.088 580.414C233.362 596.753 245.688 611.372 247.121 611.372Z" fill="#93C74B"/>
<path d="M436.218 548.786C422.459 548.786 419.21 548.786 419.21 548.786C419.21 548.786 416.725 521.84 412.903 521.84C402.966 544.199 401.246 556.812 401.246 556.812C401.246 556.812 395.895 533.306 385.193 535.409C385.193 550.697 390.162 558.723 390.162 558.723C390.162 558.723 378.887 551.079 373.536 554.901C377.167 561.781 387.487 564.456 387.487 564.456L386.722 565.221C386.722 565.221 382.518 571.527 382.518 580.318C395.704 578.216 402.393 567.896 402.393 567.896C402.393 567.896 407.477 574.818 416.152 577.833C418.828 566.176 412.338 562.429 412.338 562.429C412.338 562.429 434.116 555.474 436.218 548.786Z" fill="#93C74B"/>
<path d="M494.791 572.674C494.791 572.674 491.625 554.879 500.524 549.741C513.71 566.654 509.697 576.974 509.697 576.974C509.697 576.974 521.752 569.857 528.616 573.82C526.323 582.993 509.697 587.389 509.697 587.389C509.697 587.389 498.68 586.732 498.68 593.749C492.32 587.389 494.243 583.567 494.243 583.567C494.243 583.567 477.308 584.904 473.005 587.389C477.377 573.829 494.791 572.674 494.791 572.674Z" fill="#93C74B"/>
<path d="M298.394 681.08C298.394 681.08 290.742 656.338 317.883 650.22C303.65 670.665 298.394 681.08 298.394 681.08Z" fill="#BCD845"/>
<path d="M295.566 629.145C295.566 629.145 282.119 661.684 294.349 682.96C277.15 682.96 273.508 671.792 277.406 660.985C281.304 650.178 289.52 628.456 295.566 629.145Z" fill="#BCD845"/>
<path d="M235.082 684.137C235.082 684.137 254.553 708.408 297.399 692.356C254.823 690.636 235.082 684.137 235.082 684.137Z" fill="#BCD845"/>
<path d="M288.648 699.522C288.648 699.522 265.142 706.968 261.416 726.321C286.942 716.835 288.648 703.862 288.648 699.522Z" fill="#BCD845"/>
<path d="M298.777 697.443C298.777 697.443 312.803 693.686 313.912 715.141C309.332 710.561 302.121 697.443 298.777 697.443Z" fill="#BCD845"/>
<path d="M304.987 687.1C304.987 687.1 333.78 675.098 349.17 690.489C329.066 693.407 304.987 687.1 304.987 687.1Z" fill="#BCD845"/>
<path d="M133.058 659.008C133.058 659.008 130.895 626.409 136.473 620.832C124.522 629.578 126.523 652.105 133.058 659.008Z" fill="#BCD845"/>
<path d="M144.461 670.57C143.973 675.05 167.756 642.757 185.491 640.037C165.575 636.171 147.614 641.618 144.461 670.57Z" fill="#BCD845"/>
<path d="M91.4678 644.624C91.4678 644.624 107.769 666.27 124.682 668.85C106.991 679.063 91.4678 659.957 91.4678 644.624Z" fill="#BCD845"/>
<path d="M274.395 603.779C274.395 603.779 276.596 575.591 289.259 562.928C289.259 589.16 284.852 603.779 274.395 603.779Z" fill="#BCD845"/>
<path d="M237.088 580.413C237.088 580.413 264.856 605.882 278.424 607.601C259.505 615.819 237.088 594.122 237.088 580.413Z" fill="#BCD845"/>
<path d="M235.082 630.292C235.082 630.292 250.523 615.055 273.073 616.01C256.345 609.028 236.075 610.939 235.082 630.292Z" fill="#BCD845"/>
<path d="M407.485 604.732C407.47 604.271 407.432 603.817 407.393 603.368C407.364 602.92 407.321 602.477 407.265 602.041C407.204 601.604 407.143 601.174 407.083 600.75C407.02 600.325 406.945 599.907 406.86 599.494C406.218 596.204 405.262 593.252 404.473 591.043C404.057 589.939 403.72 589.037 403.451 588.407C403.185 587.776 403.01 587.423 403.01 587.423C403.01 587.423 402.824 587.553 402.499 587.838C402.174 588.124 401.71 588.568 401.152 589.204C400.602 589.841 399.993 590.678 399.339 591.743C399.03 592.279 398.714 592.871 398.397 593.526C398.234 593.853 398.084 594.196 397.941 594.556C397.796 594.915 397.651 595.29 397.509 595.681C396.942 597.246 396.48 599.076 396.183 601.172C395.918 603.266 395.792 605.631 396.035 608.225C396.263 610.817 396.797 613.644 397.783 616.608C398.774 619.568 400.217 622.666 402.215 625.724C403.629 622.634 404.7 619.919 405.511 617.435C405.705 616.817 405.911 616.206 406.073 615.616C406.157 615.32 406.234 615.028 406.306 614.74C406.381 614.45 406.455 614.164 406.529 613.879C406.67 613.312 406.786 612.758 406.884 612.216C406.999 611.671 407.093 611.138 407.166 610.615C407.231 610.093 407.303 609.578 407.357 609.072C407.412 608.566 407.434 608.071 407.462 607.582C407.534 606.601 407.502 605.656 407.485 604.732Z" fill="#BCD845"/>
<path d="M440.006 610.182C439.34 610.046 438.688 609.962 438.037 609.89C437.386 609.819 436.743 609.776 436.115 609.775C435.485 609.768 434.861 609.784 434.248 609.824C433.64 609.875 433.04 609.948 432.451 610.04C431.859 610.127 431.285 610.251 430.723 610.393C430.161 610.535 429.606 610.687 429.07 610.869C428.003 611.242 426.974 611.656 426.022 612.161C425.545 612.41 425.077 612.665 424.628 612.937C424.182 613.215 423.749 613.501 423.33 613.794C422.487 614.371 421.727 615.022 421.009 615.659C418.156 618.257 416.348 621.179 415.3 623.396C414.765 624.495 414.429 625.445 414.211 626.1C413.994 626.757 413.904 627.134 413.904 627.134C413.904 627.134 414.833 627.205 416.456 627.008C417.271 626.914 418.272 626.771 419.413 626.522C420.569 626.292 421.866 625.954 423.315 625.52C426.211 624.641 429.648 623.308 433.701 621.347C437.767 619.384 442.425 616.769 448.174 613.441C445.426 611.76 442.66 610.703 440.006 610.182Z" fill="#BCD845"/>
<path d="M402.973 634.007C402.483 633.875 401.742 633.705 400.73 633.559C400.603 633.542 400.472 633.524 400.338 633.506C400.205 633.496 400.068 633.485 399.926 633.474C399.644 633.455 399.344 633.439 399.027 633.427C398.393 633.405 397.687 633.39 396.917 633.42C396.156 633.473 395.325 633.555 394.424 633.673C394.2 633.704 393.968 633.732 393.736 633.771C393.507 633.818 393.273 633.865 393.036 633.913C392.56 634.013 392.067 634.124 391.556 634.247C389.52 634.746 387.269 635.56 384.846 636.746C382.459 637.98 379.864 639.549 377.339 641.728C374.801 643.882 372.258 646.555 369.98 649.835C367.714 653.116 365.714 657.006 364.327 661.428C365.225 661.033 366.083 660.641 366.905 660.252C367.32 660.06 367.706 659.856 368.119 659.675C368.528 659.49 368.928 659.306 369.319 659.122C369.71 658.938 370.092 658.754 370.466 658.569C370.651 658.476 370.836 658.383 371.02 658.291C371.203 658.199 371.397 658.115 371.582 658.026C372.327 657.675 373.039 657.322 373.719 656.964C374.053 656.78 374.407 656.616 374.746 656.444C375.086 656.274 375.419 656.102 375.744 655.929C376.069 655.755 376.387 655.58 376.698 655.404C377.011 655.229 377.338 655.069 377.647 654.898C378.27 654.562 378.864 654.216 379.437 653.866C380.035 653.537 380.608 653.201 381.157 652.855C381.435 652.685 381.694 652.501 381.971 652.337C382.247 652.172 382.518 652.005 382.783 651.836C383.318 651.501 383.814 651.139 384.322 650.802C385.356 650.147 386.277 649.411 387.225 648.751C387.691 648.412 388.134 648.053 388.576 647.707C389.028 647.375 389.466 647.034 389.891 646.687C390.103 646.513 390.312 646.338 390.518 646.16C390.73 645.992 390.94 645.825 391.148 645.66C391.563 645.325 391.967 644.984 392.358 644.638C392.456 644.551 392.553 644.464 392.649 644.377C392.749 644.296 392.848 644.215 392.947 644.134C393.143 643.969 393.338 643.805 393.53 643.643C393.913 643.313 394.286 642.98 394.647 642.644C395.388 642.009 396.097 641.386 396.759 640.754C397.434 640.154 398.079 639.583 398.673 639.013C398.823 638.873 398.967 638.727 399.113 638.595C399.259 638.464 399.403 638.336 399.544 638.21C399.826 637.956 400.095 637.707 400.353 637.466C401.373 636.474 402.229 635.717 402.808 635.142C403.39 634.575 403.704 634.233 403.704 634.233C403.704 634.233 403.464 634.139 402.973 634.007Z" fill="#BCD845"/>
<path d="M440.161 644.18C438.369 641.83 436.339 639.892 434.184 638.375C429.88 635.308 425.146 633.847 420.915 633.322C416.673 632.794 412.921 633.217 410.278 633.771C408.956 634.038 407.902 634.355 407.181 634.587C406.461 634.821 406.07 634.982 406.07 634.982C406.07 634.982 406.689 635.762 408.072 636.933C408.763 637.523 409.64 638.226 410.722 638.978C411.801 639.748 413.086 640.566 414.584 641.435C417.585 643.165 421.446 645.023 426.358 646.89C431.278 648.761 437.248 650.619 444.619 652.613C443.479 649.349 441.948 646.539 440.161 644.18Z" fill="#BCD845"/>
<path d="M502.372 573.116C502.116 571.32 501.582 569.197 500.568 566.84C499.827 568.775 499.533 570.541 499.495 572.159C499.461 573.775 499.681 575.244 499.994 576.519C500.307 577.791 500.705 578.867 501.028 579.633C501.192 580.015 501.332 580.32 501.436 580.528C501.54 580.736 501.604 580.848 501.604 580.848C501.604 580.848 501.752 580.597 501.944 580.059C502.132 579.521 502.362 578.693 502.484 577.542C502.608 576.392 502.629 574.915 502.372 573.116Z" fill="#BCD845"/>
<path d="M544.511 544.066C544.511 544.066 547.12 526.182 557.186 524.113C564.364 544.322 557.3 552.849 557.3 552.849C557.3 552.849 570.984 549.898 576.248 555.824C571.179 563.805 554.015 562.732 554.015 562.732C554.015 562.732 543.768 558.634 541.555 565.293C537.525 557.251 540.556 554.231 540.556 554.231C540.556 554.231 524.063 550.158 519.196 551.158C527.622 539.669 544.511 544.066 544.511 544.066Z" fill="#93C74B"/>
<path d="M551.834 540.353C550.52 541.955 549.684 543.538 549.138 545.062C548.596 546.584 548.341 548.048 548.236 549.356C548.132 550.662 548.17 551.809 548.235 552.637C548.27 553.052 548.307 553.385 548.34 553.615C548.372 553.846 548.398 553.972 548.398 553.972C548.398 553.972 548.618 553.781 548.97 553.331C549.318 552.88 549.797 552.167 550.277 551.113C550.757 550.061 551.243 548.666 551.567 546.877C551.89 545.092 552.052 542.909 551.834 540.353Z" fill="#BCD845"/>
<path d="M512.121 523.812C512.121 523.812 514.008 510.877 521.288 509.381C526.479 523.997 521.371 530.164 521.371 530.164C521.371 530.164 531.268 528.03 535.075 532.316C531.408 538.089 518.994 537.312 518.994 537.312C518.994 537.312 511.583 534.348 509.982 539.164C507.068 533.348 509.26 531.163 509.26 531.163C509.26 531.163 497.332 528.218 493.812 528.941C499.906 520.632 512.121 523.812 512.121 523.812Z" fill="#93C74B"/>
<path d="M518.784 517.49C517.47 519.093 516.634 520.676 516.087 522.199C515.545 523.722 515.29 525.186 515.186 526.494C515.081 527.799 515.119 528.946 515.184 529.775C515.22 530.19 515.256 530.523 515.289 530.753C515.322 530.983 515.348 531.11 515.348 531.11C515.348 531.11 515.567 530.919 515.919 530.469C516.267 530.017 516.746 529.304 517.226 528.25C517.706 527.198 518.193 525.803 518.516 524.015C518.839 522.23 519.002 520.047 518.784 517.49Z" fill="#BCD845"/>
<path d="M411.09 524.568C410.727 524.989 410.35 525.416 410.027 525.876C409.862 526.104 409.688 526.331 409.534 526.567C409.38 526.807 409.228 527.045 409.077 527.28C407.879 529.203 406.981 531.273 406.256 533.322C404.818 537.436 404.107 541.497 403.734 545.012C403.366 548.533 403.354 551.527 403.421 553.631C403.489 555.737 403.643 556.957 403.643 556.957C403.643 556.957 403.846 556.318 404.188 554.958C404.533 553.599 405.012 551.518 405.619 548.641C406.233 545.767 406.946 542.086 407.967 537.586C408.099 537.025 408.226 536.448 408.372 535.863C408.443 535.57 408.514 535.273 408.587 534.973C408.663 534.674 408.74 534.372 408.819 534.067C408.967 533.453 409.15 532.839 409.316 532.202C409.505 531.576 409.677 530.925 409.891 530.279C410.295 528.976 410.763 527.638 411.349 526.311C411.936 524.989 412.637 523.654 413.592 522.529C412.695 523.017 411.852 523.751 411.09 524.568Z" fill="#BCD845"/>
<path d="M399.991 552.89C399.951 551.228 399.665 549.577 399.17 548.028C398.678 546.477 397.98 545.03 397.16 543.75C396.341 542.467 395.403 541.351 394.442 540.417C392.515 538.542 390.525 537.415 389.085 536.798C387.636 536.175 386.728 536.039 386.728 536.039C386.728 536.039 387.102 536.371 387.84 537.066C388.574 537.763 389.683 538.816 391.048 540.368C392.406 541.922 394.025 543.978 395.574 546.793C397.129 549.601 398.545 553.22 399.378 557.815C399.825 556.222 400.031 554.552 399.991 552.89Z" fill="#BCD845"/>
<path d="M394.583 559.118C393.454 557.995 392.144 557.072 390.79 556.344C388.069 554.882 385.203 554.192 382.734 553.915C380.254 553.638 378.145 553.765 376.678 553.951C375.208 554.138 374.375 554.385 374.375 554.385C374.375 554.385 374.827 554.538 375.768 554.794C376.708 555.055 378.139 555.413 380.086 555.903C382.031 556.4 384.502 557.007 387.456 557.973C388.929 558.467 390.518 559.059 392.184 559.84C393.01 560.241 393.859 560.683 394.71 561.199C395.554 561.723 396.404 562.313 397.238 562.999C396.654 561.563 395.711 560.237 394.583 559.118Z" fill="#BCD845"/>
<path d="M394.115 563.656C393.18 563.68 391.783 563.854 390.02 564.545C389.141 564.893 388.171 565.372 387.15 566.053C386.13 566.734 385.055 567.616 384.015 568.788C382.976 569.952 381.983 571.445 381.264 573.281C380.922 574.209 380.645 575.215 380.512 576.291C380.388 577.369 380.399 578.503 380.579 579.635C381.79 578.13 382.978 577.03 384.041 576.131C385.109 575.232 386.061 574.508 386.925 573.793C387.789 573.083 388.572 572.388 389.302 571.673C390.032 570.961 390.706 570.235 391.329 569.513C392.571 568.072 393.611 566.649 394.353 565.57C395.093 564.493 395.531 563.764 395.531 563.764C395.531 563.764 395.051 563.633 394.115 563.656Z" fill="#BCD845"/>
<path d="M414.446 568.427C413.944 566.997 413.143 565.749 412.227 564.74C411.309 563.727 410.277 562.944 409.255 562.357C407.2 561.18 405.209 560.777 403.796 560.666C402.376 560.554 401.515 560.728 401.515 560.728C401.515 560.728 401.766 561.166 402.309 561.91C402.848 562.657 403.686 563.703 404.802 564.995C405.364 565.641 405.981 566.35 406.66 567.129C407.332 567.91 408.065 568.752 408.793 569.699C408.969 569.938 409.166 570.173 409.34 570.427C409.432 570.551 409.524 570.677 409.618 570.804C409.706 570.933 409.796 571.064 409.886 571.196C409.932 571.262 409.979 571.328 410.025 571.394C410.068 571.462 410.111 571.53 410.154 571.599C410.243 571.735 410.333 571.873 410.425 572.013C410.509 572.155 410.594 572.299 410.68 572.445C410.724 572.518 410.769 572.59 410.813 572.664C410.853 572.739 410.893 572.815 410.934 572.891C411.284 573.493 411.574 574.15 411.871 574.862C412.158 575.576 412.387 576.358 412.598 577.216C413.804 576.076 414.571 574.588 414.854 573.026C415.14 571.463 414.949 569.852 414.446 568.427Z" fill="#BCD845"/>
<path d="M131.672 675.49C131.328 675.292 130.766 675.05 129.964 674.931C129.165 674.812 128.116 674.826 126.915 675.151C125.715 675.472 124.368 676.108 123.062 677.114C121.754 678.117 120.496 679.482 119.443 681.151C118.386 682.819 117.532 684.784 116.963 686.973C115.821 691.355 115.826 696.611 117.344 702.355C118.567 701.399 119.635 700.474 120.617 699.574C121.606 698.674 122.453 697.799 123.241 696.954C124.777 695.257 125.964 693.677 126.849 692.193C128.626 689.22 129.313 686.692 129.676 684.46C129.86 683.345 129.97 682.299 130.111 681.303C130.255 680.32 130.442 679.384 130.713 678.557C130.98 677.739 131.329 677.046 131.629 676.571C131.775 676.338 131.914 676.15 132.011 676.029C132.108 675.906 132.164 675.844 132.164 675.844C132.164 675.844 132.015 675.691 131.672 675.49Z" fill="#BCD845"/>
<path d="M169.701 680.625C169.253 679.008 168.554 677.445 167.639 676.013C166.726 674.58 165.601 673.278 164.336 672.179C163.074 671.075 161.684 670.165 160.257 669.456C157.394 668.028 154.425 667.441 151.768 667.352C149.099 667.265 146.714 667.675 144.699 668.271C142.679 668.871 141.018 669.659 139.711 670.418C138.403 671.178 137.446 671.911 136.817 672.448C136.188 672.985 135.884 673.326 135.884 673.326C135.884 673.326 136.132 673.416 136.608 673.571C137.084 673.725 137.79 673.941 138.708 674.205C140.538 674.741 143.246 675.418 146.539 676.4C148.18 676.897 149.962 677.477 151.779 678.232C152.686 678.612 153.601 679.034 154.513 679.512C155.422 679.993 156.321 680.538 157.217 681.154C158.99 682.408 160.748 683.972 162.45 686.232C164.164 688.47 165.78 691.431 167.238 695.069C169.136 692.131 170.221 688.877 170.304 685.563C170.35 683.908 170.15 682.241 169.701 680.625Z" fill="#BCD845"/>
<path d="M138.419 677.618C138.192 676.424 137.917 675.27 137.663 674.159C137.407 673.051 137.174 671.986 137.002 671.044C136.83 670.104 136.714 669.288 136.648 668.705C136.581 668.122 136.561 667.777 136.561 667.777C136.561 667.777 136.354 667.775 135.965 667.861C135.578 667.946 135.01 668.119 134.319 668.468C133.631 668.818 132.818 669.346 131.973 670.134C131.13 670.921 130.256 671.971 129.488 673.327C128.719 674.68 128.066 676.341 127.681 678.271C127.295 680.198 127.184 682.392 127.47 684.73C127.755 687.067 128.438 689.543 129.577 692.007C130.713 694.472 132.303 696.922 134.351 699.229C135.602 696.349 136.517 693.864 137.203 691.67C137.897 689.474 138.339 687.584 138.596 685.905C139.112 682.552 138.875 680.019 138.419 677.618Z" fill="#BCD845"/>
<path d="M1010.22 222.87C1010.1 215.282 1009.01 206.327 1007.97 201.531C996.532 219.017 994.717 247.941 1004.21 267.775C1007.14 252.888 1010.9 237.902 1010.22 222.87Z" fill="#BCD845"/>
<path d="M857.058 362.363C859.839 353.448 850.135 347.428 842.843 350.701C843.161 357.415 848.313 363.863 853.531 368.212C855.115 366.565 856.451 364.499 857.058 362.363Z" fill="#BCD845"/>
<path d="M862.728 349.958C862.189 347.1 859.871 342.942 858.725 341.371C855.805 342.63 852.719 346.925 851.901 350.787C858.472 353.45 858.987 362.29 854.463 367.148C854.591 367.375 854.72 367.601 854.85 367.827C859.117 362.654 864.516 357.06 862.728 349.958Z" fill="#BCD845"/>
<path d="M905.351 327.348C895.92 319.823 882.06 327.697 879.945 337.691C889.098 338.95 899.826 333.811 909.577 334.103C908.962 331.274 907.361 328.946 905.351 327.348Z" fill="#BCD845"/>
<path d="M908.72 337.617C908.72 339.05 876.328 331.024 876.328 318.411C898.974 307.518 910.153 314.111 910.153 314.111C910.153 314.111 925.633 315.257 925.633 326.15C925.633 337.043 908.72 337.617 908.72 337.617Z" fill="#52A756"/>
<path d="M934.519 321.564C934.519 321.564 953.725 297.772 948.278 283.726C932.799 288.026 919.04 306.085 934.519 321.564Z" fill="#52A756"/>
<path d="M915.313 327.011C915.313 327.011 884.928 299.778 896.394 275.126C927.639 275.126 936.525 296.397 936.525 312.134C929.359 327.297 915.313 327.011 915.313 327.011Z" fill="#93C74B"/>
<path d="M982.39 290.606C982.39 290.606 953.343 285.255 953.343 267.673C988.888 267.673 997.296 283.726 997.296 283.726L988.716 287.686L982.39 290.606Z" fill="#52A756"/>
<path d="M962.133 250.092C958.098 232.438 995.385 267.673 995.385 267.673C995.385 267.673 989.27 276.464 989.27 279.139C989.27 281.815 965.191 263.469 962.133 250.092Z" fill="#52A756"/>
<path d="M1007.86 252.147C1006.85 260.779 1006.1 269.484 1005.84 278.116L984.746 279.14C984.746 279.14 978.98 251.239 990.065 229.072C998.333 237.339 1003.99 245.226 1007.86 252.147Z" fill="#93C74B"/>
<path d="M1010.72 323.672L847.78 397.94L828.339 406.8L767.974 434.315V415.968L1006.72 264.101C1005.84 274.255 1005.47 284.421 1005.99 294.366C1006.33 301.009 1007.07 307.553 1008.33 313.928C1008.98 317.225 1009.77 320.477 1010.72 323.672Z" fill="#DAD8D9"/>
<path d="M1010.72 323.673C1011.39 325.967 1012.15 328.232 1012.99 330.466L850.15 399.793L834.794 406.328L828.339 406.8L797.336 409.068C797.336 409.068 936.295 331.423 1005.99 294.367C1006.33 301.01 1007.07 307.553 1008.33 313.928C1008.98 317.225 1009.77 320.477 1010.72 323.673Z" fill="#E5DFE1"/>
<path d="M935.31 332.245L1005.27 294.748C1005.27 294.748 1006.48 298.008 1006.48 301.069C995.734 307.271 984.524 310.514 981.11 313.928C977.696 317.342 946.539 329.498 936.526 335.279C926.512 341.061 905.163 350.377 905.163 350.377L935.31 332.245Z" fill="#B9B8B8"/>
<path d="M1014.86 335.052C1013.15 335.956 1011.49 336.87 1009.91 337.781C995.835 345.907 852.249 401.433 852.249 401.433L850.15 399.792L847.78 397.94L844.223 395.157C844.223 395.157 859.173 386.289 863.143 382.319C867.111 378.349 901.014 367.68 906.331 362.364C911.646 357.048 945.727 353.295 953.343 345.679C960.959 338.063 984.584 327.64 1002.77 317.139C1005.01 315.845 1006.84 314.791 1008.33 313.928C1008.98 317.225 1009.77 320.477 1010.72 323.672C1011.39 325.967 1012.15 328.232 1012.99 330.465C1013.57 332.01 1014.19 333.54 1014.86 335.052Z" fill="#CEC9CA"/>
<path d="M929.617 283.643C922.338 273.388 907.228 270.183 896.397 275.011C908.092 282.575 925.484 289.382 931.689 303.686C934.928 297.24 933.769 289.304 929.617 283.643Z" fill="#BCD845"/>
<path d="M992.479 229.138C978.558 234.512 975.343 255.983 984.828 267.457C986.989 259.864 990.008 254.098 991.471 246.961C992.609 241.683 992.658 233.519 992.479 229.138Z" fill="#BCD845"/>
<path d="M977.492 268.65C975.459 259.832 964.993 255.95 957.667 257.595C959.2 266.946 969.166 273.885 977.78 277.882C978.469 274.384 978.292 271.599 977.492 268.65Z" fill="#BCD845"/>
<path d="M954.092 292.121C944.118 287.985 933.47 299.801 936.889 309.958C947.838 302.096 949.535 306.855 955.845 293.158C955.471 292.826 954.836 292.436 954.092 292.121Z" fill="#BCD845"/>
<path d="M912.122 319.705C910.46 321.971 904.453 329.451 909.577 339.197C922.792 331.568 923.704 316.907 923.704 316.907C923.704 316.907 914.556 316.386 912.122 319.705Z" fill="#52A756"/>
<path d="M970.886 283.726C970.886 283.726 961.549 289.553 967.938 300.616C977.21 291.343 983.247 279.031 983.247 279.031C983.247 279.031 973.22 281.392 970.886 283.726Z" fill="#BCD845"/>
<path d="M958.415 353.933L958.576 534.234C958.576 534.234 956.563 534.66 953.671 534.855V354.123C955.285 353.541 956.869 354.71 958.415 353.933Z" fill="#766563"/>
<path d="M953.671 354.123V534.855C948.358 535.214 940.076 534.793 935.837 529.514V358.003C941.085 354.291 946.878 351.574 953.671 354.123Z" fill="#A8908E"/>
<path d="M973.064 691.815C962.338 695.367 951.478 697.975 940.64 699.517C924.18 681.094 903.962 658.49 902.949 657.48L906.772 634.98C906.772 634.98 932.855 652.349 934.453 653.271C935.724 654.003 962.212 680.808 973.064 691.815Z" fill="#696969"/>
<path d="M776.254 471.942L790.045 520.598L964.02 694.573C1017.45 687.196 1066.93 646.858 1097.71 602.341L828.462 471.942H776.254Z" fill="#E5DFE1"/>
<path d="M1000.54 643.684C1017 643.684 1030.35 637.267 1030.35 629.351C1030.35 621.435 1017 615.018 1000.54 615.018C984.069 615.018 970.72 621.435 970.72 629.351C970.72 637.267 984.069 643.684 1000.54 643.684Z" fill="#474546"/>
<path d="M953.633 567.388C966.939 567.388 977.725 562.203 977.725 555.806C977.725 549.41 966.939 544.225 953.633 544.225C940.328 544.225 929.541 549.41 929.541 555.806C929.541 562.203 940.328 567.388 953.633 567.388Z" fill="#474546"/>
<path d="M933.927 637.604C952.322 641.099 971.012 644.61 989.654 642.865C993.596 642.496 998.118 641.479 999.869 637.928C1001.7 634.215 999.458 629.789 996.789 626.624C989.119 617.531 975.21 609.715 963.352 613.915C957.246 616.077 951.521 619.311 946.485 623.382C944.989 624.592 934.024 637.622 933.927 637.604Z" fill="#93C74B"/>
<path d="M970.582 617.729C962.34 603.002 955.682 587.389 950.759 571.246C970.043 578.65 985.873 594.579 993.157 613.909C994.261 616.841 995.15 620.238 993.672 623.001C992.328 625.513 989.308 626.756 986.459 626.772C979.895 626.809 973.736 623.366 970.582 617.729Z" fill="#93C74B"/>
<path d="M979.005 599.569C976.526 590.16 977.469 579.888 981.622 571.088C982.079 570.119 982.754 569.041 983.822 568.965C984.603 568.909 985.296 569.424 985.905 569.917C992.323 575.114 998.38 580.759 1004.02 586.797C1008.88 592.012 1013.52 597.66 1016.03 604.339C1020.4 615.994 1014.71 635.191 998.903 632.35C993.289 631.341 991.071 625.625 988.748 621.107C985.149 614.105 981.028 607.244 979.005 599.569Z" fill="#93C74B"/>
<path d="M1044.89 621.903C1035.8 614.228 1021.75 613.116 1011.56 619.265L1006.05 623.911C1014.85 634.342 1030.82 637.961 1043.26 632.347C1045.43 631.368 1047.72 629.798 1047.97 627.431C1048.2 625.243 1046.57 623.321 1044.89 621.903Z" fill="#93C74B"/>
<path d="M1025.94 561.019C1030.32 570.618 1033.28 580.865 1034.69 591.324C1035.78 599.394 1033.18 623.592 1018.9 617.006C1007.26 611.636 1012.72 592.46 1015.47 583.694C1017.96 575.728 1021.48 568.079 1025.94 561.019Z" fill="#93C74B"/>
<path d="M936.393 513.003C936.522 512.46 936.706 511.86 937.196 511.592C937.902 511.205 938.746 511.736 939.363 512.252C947.946 519.422 954.574 528.909 958.355 539.435C959.537 542.727 960.449 546.319 959.524 549.693C958.678 552.78 954.912 556.502 951.395 555.694C948.315 554.987 945.271 550.316 943.544 547.905C938.945 541.484 936.125 533.794 935.461 525.925C935.096 521.604 935.387 517.224 936.393 513.003Z" fill="#93C74B"/>
<path d="M958.568 534.433C960.081 529.692 962.866 525.206 967.042 522.501C968.793 521.367 970.873 520.55 972.938 520.847C975.644 521.238 977.728 523.426 979.231 525.71C982.909 531.301 984.401 538.525 982.259 544.866C980.118 551.206 973.99 556.265 967.298 556.248C962.995 556.238 958.259 553.464 956.896 549.172C955.547 544.926 957.281 538.465 958.568 534.433Z" fill="#93C74B"/>
<path d="M937.079 538.612C931.944 536.686 926.089 536.753 921 538.797C922.962 542.687 925.069 546.545 927.881 549.872C930.693 553.2 934.275 555.996 938.444 557.258C941.505 558.184 943.389 557.355 945.242 554.887C946.542 553.154 948.043 551.103 947.899 548.818C947.595 543.982 941.073 540.111 937.079 538.612Z" fill="#93C74B"/>
<path d="M996.398 620.692C996.398 620.692 996.685 591.171 985.505 571.246C974.326 551.321 1018.47 590.593 996.398 620.692Z" fill="#BCD845"/>
<path d="M1013.49 599.009C1013.49 599.009 1013.05 578.743 1025.94 561.019C1021.91 600.339 1016.24 615.305 1016.24 615.305C1016.24 615.305 1018.26 605.853 1013.49 599.009Z" fill="#BCD845"/>
<path d="M988.631 626.308C987.963 625.664 987.277 625.02 986.554 624.433C985.82 623.87 985.064 623.328 984.291 622.809C983.503 622.33 982.693 621.882 981.873 621.453C981.044 621.049 980.19 620.707 979.335 620.366C975.888 619.097 972.218 618.594 968.748 618.776C965.273 618.959 962.018 619.809 959.229 621.018C956.43 622.226 954.09 623.781 952.224 625.37C950.355 626.962 948.95 628.587 947.922 630.012C946.893 631.44 946.236 632.67 945.836 633.534C945.436 634.399 945.291 634.899 945.291 634.899C945.291 634.899 945.571 634.825 946.127 634.678C946.666 634.53 947.472 634.308 948.546 634.013C949.603 633.72 950.905 633.356 952.446 632.958C953.986 632.56 955.761 632.122 957.766 631.709C959.772 631.299 962.003 630.903 964.477 630.649C966.954 630.4 969.665 630.281 972.666 630.42C972.854 630.426 973.042 630.431 973.232 630.437C973.422 630.454 973.613 630.471 973.806 630.488C974.19 630.521 974.579 630.551 974.974 630.577C975.171 630.584 975.369 630.613 975.569 630.639C975.769 630.664 975.969 630.689 976.171 630.713C976.575 630.766 976.986 630.795 977.4 630.858C979.054 631.123 980.801 631.401 982.626 631.863C986.284 632.734 990.306 634.047 994.686 635.92C993.338 632.235 991.269 628.964 988.631 626.308Z" fill="#BCD845"/>
<path d="M957.806 530.8C957.344 528.476 956.311 526.343 954.985 524.601C953.658 522.851 952.05 521.488 950.422 520.505C948.79 519.518 947.139 518.9 945.633 518.543C944.123 518.185 942.756 518.081 941.623 518.099C940.489 518.116 939.589 518.255 938.976 518.386C938.362 518.518 938.034 518.642 938.034 518.642C938.034 518.642 938.143 518.818 938.356 519.134C938.568 519.453 938.885 519.915 939.303 520.492C940.135 521.653 941.379 523.272 942.902 525.242C943.662 526.23 944.487 527.309 945.346 528.491C946.202 529.677 947.11 530.949 947.994 532.402C948.878 533.855 949.792 535.46 950.651 537.392C951.497 539.326 952.313 541.586 952.997 544.303C955.094 542.502 956.568 540.31 957.362 537.961C958.163 535.614 958.274 533.12 957.806 530.8Z" fill="#BCD845"/>
<path d="M976.267 527.292C975.501 525.478 974.714 524.477 974.714 524.477C974.714 524.477 974.136 524.964 973.278 525.943C972.418 526.921 971.283 528.395 970.091 530.365C968.89 532.333 967.654 534.804 966.366 537.719C965.723 539.182 965.037 540.728 964.272 542.381C963.874 543.19 963.468 544.045 962.99 544.896C962.51 545.745 961.98 546.618 961.34 547.505C963.698 548.411 966.179 548.33 968.307 547.659C970.448 546.988 972.251 545.755 973.627 544.325C975.009 542.889 975.98 541.253 976.613 539.62C977.247 537.984 977.548 536.345 977.623 534.811C977.773 531.734 977.031 529.097 976.267 527.292Z" fill="#BCD845"/>
<path d="M950.452 553.094C950.235 552.891 949.898 552.612 949.429 552.324C948.494 551.755 947.008 551.114 944.935 551.096C943.902 551.091 942.724 551.249 941.45 551.702C940.182 552.155 938.81 552.91 937.517 554.087C936.225 555.252 935.048 556.889 934.293 558.851C933.542 560.813 933.284 563.086 933.611 565.316C935.922 564.216 937.846 563.478 939.405 562.973C940.967 562.465 942.155 562.182 943.077 561.899C944.001 561.62 944.67 561.328 945.248 560.918C945.823 560.512 946.316 560 946.794 559.404C947.738 558.218 948.67 556.72 949.441 555.522C950.22 554.292 950.768 553.428 950.768 553.428C950.768 553.428 950.67 553.298 950.452 553.094Z" fill="#BCD845"/>
<path d="M971.504 559.562C971.35 557.862 970.665 556.225 969.608 554.899C968.556 553.568 967.145 552.573 965.714 552.014C964.279 551.445 962.842 551.301 961.621 551.424C960.393 551.544 959.374 551.907 958.593 552.316C957.809 552.725 957.258 553.179 956.905 553.521C956.729 553.693 956.601 553.837 956.518 553.938C956.435 554.04 956.394 554.097 956.394 554.097C956.394 554.097 956.87 554.591 957.578 555.37C958.283 556.148 959.215 557.223 960.004 558.393C960.403 558.978 960.761 559.577 961.113 560.184C961.471 560.789 961.819 561.424 962.266 562.174C962.71 562.927 963.249 563.822 963.891 564.981C964.533 566.137 965.265 567.558 966.095 569.271C968.069 567.906 969.529 566.339 970.416 564.682C971.307 563.025 971.664 561.264 971.504 559.562Z" fill="#BCD845"/>
<path d="M669.401 388.263L659.956 427.248C654.782 441.867 656.597 461.36 656.597 461.36H681.44L697.78 417.215L669.401 388.263Z" fill="#493862"/>
<path d="M750.524 397.723C747.029 386.398 744.354 376.849 742.529 368.272H728.819C728.617 369.009 728.369 369.787 728.07 370.608C726.742 374.248 725.69 378.927 725.69 378.927C725.69 378.927 715.66 403.208 719.088 413.181C721.929 421.449 729.713 427.103 731.254 427.992C734.655 429.955 770.877 439.288 770.877 439.288C770.877 439.288 757.69 420.942 750.524 397.723Z" fill="#493862"/>
<path d="M825.34 706.737C825.34 706.737 791.954 727.681 749.442 747.87C720.589 753.369 693.64 765.577 666.939 779.05C664.594 779.637 662.267 780.187 659.956 780.694C642.486 693.55 651.627 572.581 642.386 511.948C633.146 451.318 669.591 443.578 669.591 443.578C669.591 443.578 719.471 417.245 754.442 430.826C760.672 433.245 766.29 435.534 777.159 440.684C799.471 468.14 806.995 528.542 806.995 563.408C806.996 605.833 825.34 706.737 825.34 706.737Z" fill="#FFB5B0"/>
<path d="M732.656 425.815C715.687 454.097 681.44 436.898 681.44 436.898C686.263 427.319 686.233 414.618 681.44 398.847L721.716 388.263C721.608 388.767 721.52 389.448 721.463 390.279C721.27 393.078 721.431 397.571 722.391 402.723C723.761 410.074 726.753 418.773 732.656 425.815Z" fill="#EA716E"/>
<path d="M721.457 394.952C718.374 404.6 708.509 408.779 702.051 409.94C691.733 411.795 680.458 406.366 680.458 406.366L714.174 391.681C713.981 394.48 720.497 389.799 721.457 394.952Z" fill="#B75856"/>
<path d="M653.635 361.031C653.635 361.031 662.533 406.516 690.422 408.425C715.552 410.144 723.483 391.969 726.54 385.089C729.598 378.209 741.064 298.586 696.919 305.443C652.775 312.3 653.635 342.685 653.635 361.031Z" fill="#F8877F"/>
<path d="M739.631 343.545C739.631 328.352 726.024 295.1 692.553 298.54C659.081 301.98 663.824 328.385 673.793 335.795C673.793 335.795 679.586 342.398 692.553 347.271C705.519 352.145 715.839 348.755 718.992 356.781C723.547 355.165 732.025 356.591 728.819 368.271H742.529C740.611 359.263 739.631 351.327 739.631 343.545Z" fill="#493862"/>
<path d="M452.902 378.241C452.902 378.241 428.611 392.351 400.519 459.141C372.427 525.932 371.203 519.968 373.965 526.82C382.746 540.551 421.301 562.194 425.458 558.037C429.614 553.881 451.256 489.985 455.556 468.4C459.856 446.815 452.902 378.241 452.902 378.241Z" fill="#FDE81D"/>
<path d="M372.964 525.645C372.964 525.645 353.194 560.481 353.194 573.448C353.194 586.416 404.202 585.535 410.729 579.008C417.256 572.481 424.884 564.44 424.884 554.645C424.884 549.893 416.162 531.56 403.576 525.645C390.224 519.37 372.964 525.645 372.964 525.645Z" fill="#F87268"/>
<path d="M612.599 388.421C612.599 388.421 634.429 407.851 643.602 449.129C652.775 490.408 655.068 569.142 655.068 569.142L616.847 541.241L612.599 388.421Z" fill="#FDE81D"/>
<path d="M490.777 316.525C490.777 316.525 482.95 313.56 485.497 321.805C488.044 330.051 499.319 339.797 501.421 333.491C503.523 327.184 490.777 316.525 490.777 316.525Z" fill="#E6A038"/>
<path d="M577.48 302.15C577.48 302.15 583.213 300.87 582.258 312.594C581.302 324.318 576.525 326.038 573.658 323.171C570.792 320.305 577.48 302.15 577.48 302.15Z" fill="#E6A038"/>
<path d="M523.78 372.571C523.78 372.571 459.57 367.125 450.11 380.884C440.651 394.644 450.97 564.917 454.41 602.182C457.85 639.447 612.643 641.74 621.816 609.062C630.989 576.383 640.162 398.657 610.35 387.191C580.538 375.725 523.78 372.571 523.78 372.571Z" fill="#FDE81D"/>
<path d="M514.283 389.652C514.283 389.652 521.353 404.367 549.637 402.838C533.202 409.527 514.283 399.972 514.283 389.652Z" fill="#B6A715"/>
<path d="M460.583 427.299C460.583 427.299 444.912 453.481 447.397 485.586C449.881 517.309 449.881 517.309 449.881 517.309L451.249 558.558L469.373 551.516C469.373 551.516 456.96 534.174 456.96 524.022C456.96 513.869 460.2 502.785 460.2 502.785L454.85 508.136C454.85 508.136 455.92 473.164 458.251 458.449C460.583 443.734 460.583 427.299 460.583 427.299Z" fill="#B6A715"/>
<path d="M620.536 442.078C620.536 442.078 629.098 473.199 630.072 481.399C633.722 480.617 637.162 477.177 637.162 477.177L639.455 456.92C639.455 456.92 632.119 461.698 632.119 467.049C630.282 450.614 620.536 442.078 620.536 442.078Z" fill="#B6A715"/>
<path d="M516.582 349.926C516.582 349.926 515.181 370.437 515.69 374.769C522.443 387.509 535.055 393.879 549.07 392.478C563.084 391.077 567.288 375.788 567.288 375.788C567.288 375.788 563.211 347.123 563.466 338.587C547.286 343.556 516.582 349.926 516.582 349.926Z" fill="#EA716E"/>
<path d="M532.56 358.525C532.56 358.525 541.68 363.646 552.509 359.78C563.338 355.914 564.31 351.701 564.31 351.701L563.084 344.829C563.084 344.829 542.933 357.697 532.56 358.525Z" fill="#B75856"/>
<path d="M485.942 299.666C485.942 299.666 495.879 362.73 537.348 359.672C578.818 356.614 582.544 303.201 578.245 269.949C573.945 236.697 478.202 247.972 485.942 299.666Z" fill="#F8877F"/>
<path d="M557.605 284.95C537.588 284.95 479.863 303.801 478.512 304.243L478.499 304.249C478.491 304.251 478.488 304.251 478.488 304.251L478.491 304.249C478.598 303.954 485.496 285.033 485.496 271.573C485.496 258.006 486.842 250.888 497.216 248.068C497.548 247.977 497.91 247.878 498.304 247.771C510.223 244.516 549.568 233.721 560.184 239.849C571.151 246.181 582.512 268.361 586.525 276.674C590.538 284.988 577.864 284.95 557.605 284.95Z" fill="#B3A939"/>
<path d="M494.35 268.517C496.835 286.671 492.249 298.711 492.249 298.711L478.512 304.244L478.499 304.249H478.491C478.598 303.954 485.496 285.034 485.496 271.573C485.496 258.006 486.842 250.889 497.216 248.069C497.548 247.977 497.91 247.878 498.304 247.771C495.739 251.24 492.871 257.714 494.35 268.517Z" fill="#867F2B"/>
<path d="M499.892 298.519C499.892 298.519 491.484 309.401 494.159 318.054C496.835 326.706 494.49 327.432 494.49 327.432C494.49 327.432 488.713 318.259 485.846 312.976C482.98 307.692 482.597 305.112 482.98 304.73C483.362 304.348 498.937 295.079 499.892 298.519Z" fill="#493862"/>
<path d="M664.806 780.128C662.38 781.361 659.953 782.599 657.528 783.846C622.536 801.815 587.64 820.854 549.102 828.641C520.34 834.453 491.522 834.716 462.749 832.083C460.055 822.492 446.188 772.257 444.375 749.235C442.37 723.722 439.218 688.465 446.383 667.539C453.549 646.613 450.396 631.995 450.396 614.221C450.396 596.448 449.059 558.558 449.059 558.558C449.059 558.558 453.836 555.743 466.735 539.404C479.635 523.065 496.835 451.4 498.553 420.73C500.274 390.057 496.835 369.704 496.835 369.704C496.835 369.704 501.612 368.463 508.3 369.704C510.354 371.758 510.879 408.404 510.879 421.304C510.879 434.201 514.606 476.339 536.966 476.339C559.326 476.339 568.497 462.008 568.497 431.335C568.497 400.664 572.796 375.152 572.796 375.152L583.117 376.87C583.117 376.87 584.265 432.195 598.309 460C612.356 487.804 632.135 480.923 632.135 480.923C632.135 480.923 634.429 505.578 634.429 536.825C634.429 568.069 643.887 629.413 646.182 660.086C648.311 688.556 662.747 761.979 664.806 780.128Z" fill="#493F5A"/>
<path d="M664.806 780.128C662.747 761.979 648.311 688.556 646.183 660.087C643.888 629.413 634.43 568.07 634.43 536.825C634.43 526.931 634.2 517.7 633.886 509.701L633.834 509.665C633.834 509.665 618.307 577.904 633.834 631.963C630.664 694.27 638.592 713.763 644.661 738.415C647.97 751.858 650.339 771.609 651.808 786.791C653.715 785.807 655.621 784.825 657.528 783.846C659.954 782.599 662.38 781.361 664.806 780.128Z" fill="#332C3F"/>
<path d="M590.284 622.248C590.284 622.248 583.404 633.926 587.609 647.495C591.813 661.063 611.808 671.744 626.523 668.113C641.238 664.482 651.246 650.934 651.246 650.934L656.597 579.462L628.982 562.337L630.715 605.335C614.145 595.761 602.994 606.016 590.284 622.248Z" fill="#FFB5B0"/>
<path d="M546.139 550.414L591.632 642.144C591.632 642.144 627.167 644.05 627.167 613.478C607.292 590.164 586.653 561.88 586.653 561.88L546.139 550.414Z" fill="#F8877F"/>
<path d="M491.555 457.392L539.762 573.894C540.774 576.339 543.159 577.933 545.804 577.933H625.574C630.058 577.933 633.212 573.523 631.762 569.28L593.076 456.06C592.2 453.497 589.835 451.739 587.128 451.64L497.837 448.357C493.078 448.182 489.734 452.991 491.555 457.392Z" fill="white"/>
<path d="M487.733 463.447L535.94 579.95C536.951 582.395 539.336 583.989 541.982 583.989H621.752C626.236 583.989 629.39 579.579 627.94 575.335L589.254 462.116C588.378 459.553 586.013 457.795 583.306 457.696L494.015 454.413C489.256 454.238 485.912 459.047 487.733 463.447Z" fill="#BCA4A2"/>
<path d="M487.733 463.447L498.209 488.764L498.723 490.008C499.778 491.183 502.981 491.537 512.69 481.827C526.832 467.686 502.957 454.742 502.956 454.741L494.016 454.413C489.256 454.238 485.912 459.047 487.733 463.447Z" fill="#7B6C6A"/>
<path d="M587.985 537.124C587.985 537.124 586.328 540.152 588.749 544.305C583.806 549.248 594.706 563.007 603.751 570.397C612.797 577.786 620.018 583.867 623.018 583.867C626.018 583.867 627.03 581.866 626.524 579.304C626.018 576.742 587.985 537.124 587.985 537.124Z" fill="#7B6C6A"/>
<path d="M376.434 530.048C376.434 530.048 342.423 567.401 354.654 599.124C366.885 630.847 404.723 595.302 409.692 581.543C414.66 567.783 459.379 490.195 459.379 490.195C459.379 490.195 484.222 476.436 495.688 479.111C507.155 481.787 513.652 483.698 513.652 483.698C513.652 483.698 521.296 475.289 517.474 471.467C513.652 467.645 503.13 454.211 493.867 454.211C493.867 447.86 515.579 443.566 515.579 443.566C515.579 443.566 517.254 438.711 508.691 436.678C500.129 434.646 472.805 438.403 463.201 443.948C453.596 449.493 441.033 472.232 431.86 481.404C422.687 490.578 383.938 520.431 376.434 530.048Z" fill="#F8877F"/>
<path d="M496.66 300.825C496.66 300.825 510.983 290.034 521.774 300.825C532.565 311.616 554.115 313.52 563.052 308.361C571.989 303.201 577.751 303.567 584.304 303.567C590.858 303.567 600.52 288.896 593.636 287.447C586.752 285.998 579.965 278.453 563.53 279.982C547.095 281.511 517.57 284.473 513.652 288.39C509.734 292.308 495.146 299.311 496.66 300.825Z" fill="#493862"/>
<path d="M469.507 318.012C469.507 318.012 461.481 314.189 467.405 308.265C473.329 302.341 493.968 295.652 504.67 287.435C515.372 279.218 546.139 273.485 559.899 274.631C573.658 275.778 587.991 277.88 594.297 275.778C600.604 273.676 607.675 281.129 604.999 286.288C602.324 291.448 591.1 285.906 585.316 285.906C579.532 285.906 549.19 281.529 541.433 286.007C533.677 290.486 514.753 290.776 505.243 296.267C495.733 301.757 478.489 308.839 478.489 313.807C478.489 318.776 469.507 318.012 469.507 318.012Z" fill="#DDDA47"/>
<path d="M483.826 307.926C483.826 307.926 470.972 314.274 473.52 318.054C483.266 317.311 487.048 315.127 487.048 315.127C487.048 315.127 483.175 309.371 483.826 307.926Z" fill="#6C6B18"/>
<path d="M476.96 685.934C476.96 685.934 499.892 681.893 510.212 651.699L519.512 653.015C519.512 653.015 513.154 688.873 477.549 694.978C472.182 687.031 476.96 685.934 476.96 685.934Z" fill="#1F1F1F"/>
<path d="M470.902 750.402C458.672 700.09 470.902 658.152 462.494 583.646C468.622 560.09 472.474 537.981 474.528 524.49C471.865 531.055 469.221 536.257 466.736 539.404C453.836 555.743 449.059 558.558 449.059 558.558C449.059 558.558 450.397 596.448 450.397 614.221C450.397 631.995 453.549 646.613 446.384 667.539C439.218 688.465 442.37 723.722 444.376 749.235C446.188 772.257 460.056 822.492 462.75 832.083C479.225 833.591 495.715 834.146 512.2 833.257C496.116 809.169 477.409 777.17 470.902 750.402Z" fill="#332C3F"/>
<path d="M644.749 354.533C644.749 354.533 650.937 367.125 656.288 367.125C659.728 350.308 673.605 351.285 674.943 344.596C676.281 337.908 672.841 334.468 672.841 334.468C672.841 334.468 642.838 341.92 644.749 354.533Z" fill="#493862"/>
<path d="M640.059 328.932C640.059 328.932 648.188 287.074 684.498 283.634C720.808 280.194 741.296 314.377 741.296 329.582C739.631 343.545 640.059 328.932 640.059 328.932Z" fill="#B3A939"/>
<path d="M652.52 453.249C652.52 453.249 624.556 463.418 626.634 511.886C628.713 560.355 630.715 598.667 630.715 598.667L656.597 596.29V498.052L652.52 453.249Z" fill="#FFB5B0"/>
<path d="M649.046 542.238C649.046 542.238 645.64 528.798 646.532 518.479C647.424 508.159 652.902 495.419 652.902 495.419C652.902 495.419 657.42 538.988 649.046 542.238Z" fill="#C56079"/>
<path d="M825.34 694.124C819.027 669.405 819.799 563.027 816.74 553.473C813.684 543.916 752.531 546.211 746.797 520.985C741.065 495.759 760.468 435.246 763.232 432.483C754.549 429.346 751.28 427.992 751.28 427.992C751.28 427.992 720.139 472.826 720.139 521.559C700.645 524.711 673.127 529.585 673.127 529.585C673.127 529.585 663.066 457.853 662.034 445.111C657.361 447.432 653.034 450.132 648.746 453.212C649.622 470.426 652.258 524.657 651.054 531.877C649.622 540.477 638.658 591.733 638.658 591.733C638.658 591.733 641.309 647.876 643.601 686.862C645.668 721.991 650.217 756.73 657.527 783.846C703.615 760.178 749.869 738.365 804.832 746.546C814.198 747.94 823.742 748.358 833.361 747.884C832.342 735.858 829.887 711.913 825.34 694.124Z" fill="#023240"/>
<path d="M669.235 653.227C669.235 653.227 725.602 660.748 752.53 645.201C756.352 709.794 759.028 717.438 715.839 725.847C672.649 734.255 669.235 675.778 669.235 653.227Z" fill="#305763"/>
<path d="M666.44 567.613C666.44 567.613 651.246 588.907 655.45 603.104C745.268 674.249 785.803 677.51 806.337 665.656C826.87 653.801 839.673 523.277 825.341 488.879C811.008 454.48 774.132 439.288 774.132 439.288V517.544L766.863 603.104C766.863 603.104 680.678 571.244 666.44 567.613Z" fill="#FFB5B0"/>
<path d="M661.948 598.667C661.948 598.667 648.727 591.187 638.282 588.334C627.836 585.481 598.884 563.992 593.437 555.101C586.105 547.089 587.985 543.111 591.983 545.564C583.765 533.985 586.721 532.296 596.688 537.412C591.632 529.157 594.451 526.625 606.964 535.256C604.209 530.483 603.559 526.998 605.343 527.533C611.821 529.473 622.057 540.877 622.057 540.877L614.65 519.198C614.65 519.198 632.761 529.698 640.886 540.552C649.011 551.406 665.695 568.92 673.527 573.442C680.12 586.15 661.948 598.667 661.948 598.667Z" fill="#F8877F"/>
<path d="M646.015 356.834C646.015 356.834 624.97 360.458 628.696 342.398C632.422 324.339 665.388 320.326 684.594 320.326C703.799 320.326 715.839 327.492 728.452 327.492C741.065 327.492 755.684 333.512 755.684 346.125C755.684 358.737 740.533 356.833 740.533 356.833C740.533 356.833 721.286 343.371 704.946 338.728C688.607 334.085 672.539 330.309 646.015 356.834Z" fill="#DDDA47"/>
<path d="M704.946 442.441C704.946 442.441 716.938 455.409 721.381 455.409C732.704 434.053 743.931 424.095 743.931 424.095L729.319 415.659C729.319 415.659 704.946 434.415 704.946 442.441Z" fill="white"/>
<path d="M681.44 429.255C681.44 429.255 697.248 438.381 703.652 442.078C703.011 442.587 702.385 443.088 701.774 443.579C691.162 452.111 685.046 457.92 685.046 457.92C685.046 457.92 667.204 447.62 666.44 442.078C672.173 428.255 681.44 429.255 681.44 429.255Z" fill="white"/>
<path d="M619.526 533.467L621.423 539.019C621.423 539.019 635.068 554.154 634.874 550.414C634.681 546.674 619.526 533.467 619.526 533.467Z" fill="#EA716E"/>
<path d="M476.387 455.988L493.867 454.211C493.867 454.211 493.867 454.211 500.076 448.352C497.011 448.153 476.387 455.988 476.387 455.988Z" fill="#EA716E"/>
<path d="M479.827 468.4C479.827 468.4 490.251 465.336 498.555 470.13C506.858 474.923 516.693 479.542 516.693 479.542L517.411 478.22C517.411 478.22 501.275 466.759 496.093 465.912C490.91 465.065 479.827 468.4 479.827 468.4Z" fill="#EA716E"/>
<path d="M474.762 444.426L502.956 436.126L496.448 436.336L474.762 444.426Z" fill="#EA716E"/>
<path d="M621.422 604.093C621.422 604.093 633.664 609.698 631.371 622.693C629.078 635.688 622.6 642.167 622.6 642.167C622.6 642.167 631.837 640.912 633.834 628.426C635.83 615.941 633.751 604.093 621.422 604.093Z" fill="#C56079"/>
<path d="M599.344 661.974C599.344 661.974 616.37 663.621 622.389 657.602C622.389 665.819 605.869 665.584 605.869 665.584C605.869 665.584 599.344 664.889 599.344 661.974Z" fill="#C56079"/>
<path d="M766.863 603.104C766.863 603.104 779.19 610.208 784.063 622.821C781.483 607.628 774.132 598.668 774.132 598.668L780.35 592.45H771.45L768.746 575.81L766.863 603.104Z" fill="#C56079"/>
<path d="M774.132 512.745C774.132 512.745 788.234 501.097 794.307 501.097C779.667 502.235 777.947 505.292 777.947 505.292C777.947 505.292 777.947 496.501 777.947 491.724C771.259 504.145 770.876 507.203 770.876 507.203V520.625L774.132 512.745Z" fill="#C56079"/>
<path d="M774.132 512.745L772.197 540.319C772.197 540.319 765.905 538.554 763.36 536.57C768.966 525.995 774.132 512.745 774.132 512.745Z" fill="#C56079"/>
<path d="M518.49 321.219C521.287 321.219 523.554 320.052 523.554 318.612C523.554 317.173 521.287 316.006 518.49 316.006C515.693 316.006 513.426 317.173 513.426 318.612C513.426 320.052 515.693 321.219 518.49 321.219Z" fill="#493862"/>
<path d="M552.315 321.219C555.112 321.219 557.38 320.052 557.38 318.612C557.38 317.173 555.112 316.006 552.315 316.006C549.518 316.006 547.251 317.173 547.251 318.612C547.251 320.052 549.518 321.219 552.315 321.219Z" fill="#493862"/>
<path d="M534.28 321.219C534.28 321.219 535.142 339.34 538.361 337.481C541.581 335.622 539.126 321.219 539.126 321.219H534.28Z" fill="#EA716E"/>
<path d="M529.889 341.558L548.436 341.048C548.436 341.048 546.661 349.584 538.466 349.584C530.272 349.584 529.889 341.558 529.889 341.558Z" fill="white"/>
<path d="M527.757 309.944C526.066 308.968 524.461 308.294 522.95 307.865C521.44 307.436 520.024 307.253 518.719 307.253C517.111 307.253 515.675 307.53 514.437 307.948C512.579 308.575 511.168 309.509 510.212 310.291C509.257 311.073 508.753 311.707 508.706 311.766C508.249 312.348 508.35 313.19 508.932 313.648C509.512 314.104 510.352 314.004 510.81 313.426L510.81 313.426L510.811 313.425C510.841 313.387 511.58 312.49 512.925 311.629C513.598 311.197 514.421 310.773 515.386 310.458C516.352 310.143 517.46 309.934 518.719 309.934C519.774 309.934 520.937 310.08 522.219 310.444C523.5 310.807 524.899 311.389 526.417 312.265C527.058 312.635 527.878 312.416 528.248 311.775C528.618 311.133 528.398 310.314 527.757 309.944Z" fill="#493862"/>
<path d="M564.863 310.184C563.495 309.105 561.95 308.406 560.371 307.98C558.789 307.554 557.169 307.395 555.606 307.395C552.863 307.396 550.288 307.883 548.381 308.365C546.474 308.848 545.238 309.33 545.199 309.345C544.51 309.615 544.169 310.392 544.439 311.082C544.708 311.771 545.486 312.111 546.175 311.842C546.21 311.828 547.37 311.382 549.122 310.943C550.874 310.503 553.222 310.075 555.606 310.076C556.986 310.075 558.377 310.219 559.672 310.568C560.969 310.919 562.165 311.47 563.203 312.289C563.785 312.747 564.627 312.647 565.086 312.066C565.544 311.485 565.444 310.642 564.863 310.184Z" fill="#493862"/>
<path d="M681.243 371.881C681.243 371.881 680.139 388.653 684.091 390.281C688.042 391.909 691.109 388.968 691.109 388.968L681.243 371.881Z" fill="#EA716E"/>
<path d="M699.921 359.074C697.481 357.919 695.306 357.456 693.418 357.457C692.002 357.456 690.755 357.717 689.697 358.112C688.107 358.705 686.947 359.591 686.181 360.331C685.413 361.072 685.031 361.671 684.987 361.741C684.594 362.368 684.785 363.195 685.412 363.588C686.037 363.979 686.86 363.791 687.255 363.17L687.255 363.17C687.263 363.155 687.783 362.367 688.803 361.617C689.312 361.241 689.945 360.872 690.707 360.597C691.47 360.322 692.363 360.138 693.417 360.137C694.868 360.138 696.635 360.487 698.775 361.498C699.444 361.814 700.243 361.528 700.559 360.859C700.876 360.19 700.59 359.391 699.921 359.074Z" fill="#493862"/>
<path d="M675.531 364.48C674.337 364.225 673.24 364.109 672.232 364.109C670.318 364.107 668.722 364.536 667.449 365.208C666.494 365.71 665.724 366.342 665.116 366.998C664.203 367.984 663.65 369.018 663.316 369.813C662.983 370.61 662.869 371.172 662.855 371.239C662.713 371.966 663.186 372.67 663.912 372.813C664.637 372.955 665.339 372.485 665.484 371.763L665.485 371.761C665.49 371.735 665.568 371.387 665.768 370.898C665.919 370.53 666.139 370.083 666.445 369.628C666.905 368.942 667.551 368.243 668.464 367.71C669.379 367.178 670.572 366.792 672.232 366.789C673.033 366.789 673.942 366.882 674.972 367.102C675.695 367.256 676.408 366.794 676.562 366.071C676.717 365.346 676.255 364.634 675.531 364.48Z" fill="#493862"/>
<path d="M697.693 369.706C697.862 368.044 696.24 366.518 694.069 366.298C691.899 366.077 690.003 367.246 689.834 368.907C689.665 370.569 691.288 372.095 693.458 372.315C695.628 372.536 697.524 371.368 697.693 369.706Z" fill="#493862"/>
<path d="M673.301 376.881C675.387 376.245 676.684 374.435 676.197 372.837C675.71 371.239 673.624 370.459 671.537 371.095C669.451 371.731 668.154 373.542 668.641 375.14C669.128 376.737 671.214 377.517 673.301 376.881Z" fill="#493862"/>
<path d="M684.64 395.533C684.64 395.533 691.844 393.881 696.947 389.719C699.206 395.331 698.577 398.736 695.951 399.604C693.585 400.386 688.282 401.31 684.64 395.533Z" fill="white"/>
<path d="M718.374 357.131C718.374 357.131 723.445 348.278 729.847 353.247C736.249 358.216 734.433 375.797 726.598 375.033C718.763 374.268 718.374 357.131 718.374 357.131Z" fill="#F8877F"/>
<path d="M667.165 386.531C673.814 386.531 679.204 381.141 679.204 374.491C679.204 367.842 673.814 362.452 667.165 362.452C660.516 362.452 655.126 367.842 655.126 374.491C655.126 381.141 660.516 386.531 667.165 386.531Z" stroke="white" stroke-width="6.755" stroke-miterlimit="10"/>
<path d="M693.479 379.164C700.129 379.164 705.519 373.774 705.519 367.125C705.519 360.476 700.129 355.085 693.479 355.085C686.83 355.085 681.44 360.476 681.44 367.125C681.44 373.774 686.83 379.164 693.479 379.164Z" stroke="white" stroke-width="6.755" stroke-miterlimit="10"/>
<path d="M719.5 354.411L704.577 361.776L705.289 363.219L720.212 355.853L719.5 354.411Z" fill="white"/>
<path d="M680.107 364.362C679.327 364.36 678.659 364.547 678.129 364.842C677.731 365.062 677.412 365.338 677.162 365.623C676.788 366.05 676.565 366.491 676.431 366.83C676.297 367.17 676.25 367.41 676.243 367.449L677.825 367.74C677.832 367.709 677.866 367.569 677.941 367.386C678.055 367.109 678.262 366.745 678.59 366.469C678.754 366.33 678.949 366.209 679.193 366.119C679.437 366.03 679.733 365.97 680.107 365.97C680.503 365.97 680.987 366.038 681.574 366.218L682.046 364.68C681.331 364.461 680.688 364.362 680.107 364.362Z" fill="white"/>
<path d="M728.891 365.637C728.891 365.637 728.574 364.134 727.84 363.71C727.107 363.286 727.224 359.904 726.051 359.521C726.051 359.521 727.561 363.107 726.051 364.617C728.891 365.637 728.891 365.637 728.891 365.637Z" fill="#B75856"/>
<path d="M620.217 565.913L592.337 544.305L591.632 546.165L620.217 565.913Z" fill="#EA716E"/>
<path d="M596.122 538.385C596.122 538.385 618.413 558.014 620.217 558.014C622.021 558.014 597.715 537.124 597.715 537.124L596.122 538.385Z" fill="#EA716E"/>
<path d="M605.925 535.108C605.925 535.108 623.148 552.281 623.785 551.644C624.422 551.007 608.218 534.803 608.218 534.803C608.218 534.803 605.925 534.089 605.925 535.108Z" fill="#EA716E"/>
<path d="M701.774 443.579C701.774 443.579 698.098 471.253 701.774 482.464C703.283 469.342 701.774 443.579 701.774 443.579Z" fill="#C56079"/>
<path d="M700.735 486.032C700.735 486.032 698.315 497.498 699.971 508.072C701.627 518.647 701.627 518.647 701.627 518.647C701.627 518.647 702.519 487.815 700.735 486.032Z" fill="#C56079"/>
<path d="M925.671 721.775C909.087 717.149 881.216 734.632 866.76 737.156C838.346 742.116 809.335 739.554 780.678 740.356C723.815 741.947 680.279 768.572 629.95 791.362C543.915 830.322 444.042 834.62 351.51 823.429C306.819 818.024 263.366 807.94 220.303 795.018C182.336 783.626 131.842 769.426 98.3024 799.476C89.0227 807.79 84.6578 812.934 94.9017 820.963C109.701 832.561 148.789 827.71 166.623 826.441C221.083 822.568 277.827 821.004 329.849 840.205C358.341 850.72 382.408 870.737 411.347 880.138C445.06 891.09 480.66 883.449 512.647 870.282C563.28 849.439 613.805 828.344 664.532 807.728C714.999 787.218 766.15 764.468 821.534 763.097C848.443 762.432 876.66 771.388 903.235 767.84C919.482 765.671 952.388 744.707 932.291 725.477C930.394 723.662 928.159 722.47 925.671 721.775Z" fill="#BDE9FF"/>
<path d="M1070.73 356.86C1086.14 356.86 1098.63 344.371 1098.63 328.964C1098.63 313.558 1086.14 301.069 1070.73 301.069C1055.33 301.069 1042.84 313.558 1042.84 328.964C1042.84 344.371 1055.33 356.86 1070.73 356.86Z" fill="#BDE9FF"/>
<path d="M579.494 92.9607C579.494 92.9607 676.875 131.499 758.705 110.733C647.253 105.574 593.886 101.27 579.494 92.9607Z" fill="white"/>
<path d="M553.803 39.6428C553.803 39.6428 595.373 95.827 674.63 86.0808C615.82 74.0413 585.336 62.0019 553.803 39.6428Z" fill="white"/>
<path d="M871.99 104.919C871.99 104.919 911.724 124.138 969.827 104.919C909.446 108.631 871.99 104.919 871.99 104.919Z" fill="white"/>
<path d="M883.839 66.2064C883.839 66.2064 897.071 96.5705 934.672 91.0499C904.478 82.6412 888.043 74.6148 883.839 66.2064Z" fill="white"/>
<path d="M358.765 178.591C358.138 174.603 404.079 229.415 440.672 229.415C408.305 237.886 361.539 196.243 358.765 178.591Z" fill="white"/>
<path d="M640.565 447.457C640.565 447.457 636.551 462.745 646.871 462.745C657.191 462.745 659.92 456.202 653.85 450.132C647.781 444.063 640.99 445.331 640.565 447.457Z" fill="white"/>
<path d="M112.164 300.678C112.164 300.678 128.528 386.956 99.7071 428.195C70.8861 469.434 44.8961 514.582 44.8961 477.102C44.8961 439.622 81.5879 417.672 84.6455 364.436C87.7031 311.2 102.991 256.521 112.164 300.678Z" fill="#BDE9FF"/>
<path d="M24.448 565.004C35.7411 565.004 44.8959 552.936 44.8959 538.049C44.8959 523.162 35.7411 511.094 24.448 511.094C13.1549 511.094 4 523.162 4 538.049C4 552.936 13.1549 565.004 24.448 565.004Z" fill="#BDE9FF"/>
<path d="M1063.76 698.666C1068.99 698.666 1073.22 694.431 1073.22 689.207C1073.22 683.982 1068.99 679.747 1063.76 679.747C1058.54 679.747 1054.3 683.982 1054.3 689.207C1054.3 694.431 1058.54 698.666 1063.76 698.666Z" fill="#BDE9FF"/>
<path d="M969.491 458.372C969.491 458.372 961.867 450.326 969.491 442.701C982.849 445.014 969.491 458.372 969.491 458.372Z" fill="#93C74B"/>
<path d="M969.491 457.777C969.491 457.777 960.037 453.557 957.222 461.216C966.777 465.421 969.491 457.777 969.491 457.777Z" fill="#93C74B"/>
<path d="M969.491 457.93C969.491 457.93 986.882 440.73 983.442 451.241C980.002 461.752 969.491 457.93 969.491 457.93Z" fill="#93C74B"/>
<path d="M1033.85 466.207C1033.85 466.207 1026.22 458.161 1033.85 450.537C1047.21 452.849 1033.85 466.207 1033.85 466.207Z" fill="#93C74B"/>
<path d="M1033.85 465.612C1033.85 465.612 1024.39 461.392 1021.58 469.052C1031.13 473.256 1033.85 465.612 1033.85 465.612Z" fill="#93C74B"/>
<path d="M1033.85 465.765C1033.85 465.765 1051.24 448.566 1047.8 459.076C1044.36 469.587 1033.85 465.765 1033.85 465.765Z" fill="#93C74B"/>
<path d="M1105.3 472.207C1108.18 468.072 1110.76 461.925 1102.09 460.425C1096.33 466.191 1099.28 472.197 1101.07 474.783C1098.47 473.896 1091.28 472.139 1088.81 478.845C1097.42 482.631 1100.87 477.488 1101.76 475.71C1101.97 475.96 1102.09 476.096 1102.09 476.096C1102.09 476.096 1102.31 475.882 1102.65 475.504C1105.1 476.17 1113.85 477.802 1117.02 468.113C1119.72 459.86 1110.49 467.483 1105.3 472.207Z" fill="#93C74B"/>
<path d="M110.258 534.045C113.138 529.911 115.714 523.764 107.049 522.264C101.283 528.03 104.238 534.035 106.021 536.621C103.426 535.734 96.2324 533.977 93.7679 540.683C102.372 544.469 105.82 539.326 106.716 537.548C106.921 537.799 107.05 537.934 107.05 537.934C107.05 537.934 107.263 537.72 107.609 537.343C110.052 538.008 118.807 539.64 121.978 529.951C124.679 521.698 115.446 529.322 110.258 534.045Z" fill="#93C74B"/>
<path d="M211.472 519.321C214.352 515.186 216.929 509.039 208.264 507.539C202.498 513.305 205.453 519.311 207.236 521.897C204.641 521.009 197.447 519.253 194.982 525.959C203.587 529.745 207.035 524.601 207.93 522.823C208.136 523.074 208.264 523.209 208.264 523.209C208.264 523.209 208.478 522.996 208.824 522.618C211.266 523.284 220.021 524.916 223.193 515.226C225.893 506.974 216.66 514.597 211.472 519.321Z" fill="#93C74B"/>
<path d="M322.834 508.224C325.714 504.089 328.291 497.942 319.626 496.442C313.86 502.208 316.814 508.214 318.598 510.8C316.003 509.912 308.809 508.156 306.344 514.862C314.949 518.648 318.397 513.504 319.292 511.726C319.498 511.977 319.626 512.113 319.626 512.113C319.626 512.113 319.84 511.899 320.186 511.521C322.628 512.187 331.383 513.819 334.554 504.129C337.255 495.877 328.022 503.5 322.834 508.224Z" fill="#93C74B"/>
<path d="M294.269 479.463C297.148 475.328 299.725 469.181 291.06 467.681C285.294 473.447 288.249 479.453 290.032 482.039C287.437 481.151 280.243 479.395 277.779 486.1C286.383 489.886 289.831 484.743 290.727 482.965C290.932 483.216 291.06 483.351 291.06 483.351C291.06 483.351 291.274 483.138 291.62 482.76C294.062 483.426 302.818 485.058 305.989 475.368C308.689 467.116 299.457 474.739 294.269 479.463Z" fill="#93C74B"/>
<path d="M202.584 482.957C205.463 478.823 208.04 472.676 199.375 471.176C193.609 476.942 196.564 482.948 198.347 485.534C195.752 484.646 188.558 482.889 186.094 489.595C194.698 493.381 198.146 488.238 199.042 486.46C199.247 486.711 199.375 486.846 199.375 486.846C199.375 486.846 199.589 486.632 199.935 486.255C202.377 486.921 211.133 488.553 214.304 478.863C217.004 470.61 207.772 478.234 202.584 482.957Z" fill="#93C74B"/>
<path d="M110.258 489.351C113.138 485.217 115.714 479.07 107.049 477.57C101.283 483.336 104.238 489.342 106.021 491.928C103.426 491.04 96.2324 489.283 93.7679 495.989C102.372 499.775 105.82 494.632 106.716 492.854C106.921 493.105 107.05 493.24 107.05 493.24C107.05 493.24 107.263 493.026 107.609 492.649C110.052 493.315 118.807 494.947 121.978 485.257C124.679 477.005 115.446 484.628 110.258 489.351Z" fill="#93C74B"/>
</g>
<defs>
<filter id="filter0_d_43_32" x="0" y="0" width="1131.19" height="893.376" filterUnits="userSpaceOnUse" color-interpolation-filters="sRGB">
<feFlood flood-opacity="0" result="BackgroundImageFix"/>
<feColorMatrix in="SourceAlpha" type="matrix" values="0 0 0 0 0 0 0 0 0 0 0 0 0 0 0 0 0 0 127 0" result="hardAlpha"/>
<feOffset dy="4"/>
<feGaussianBlur stdDeviation="2"/>
<feComposite in2="hardAlpha" operator="out"/>
<feColorMatrix type="matrix" values="0 0 0 0 0 0 0 0 0 0 0 0 0 0 0 0 0 0 0.25 0"/>
<feBlend mode="normal" in2="BackgroundImageFix" result="effect1_dropShadow_43_32"/>
<feBlend mode="normal" in="SourceGraphic" in2="effect1_dropShadow_43_32" result="shape"/>
</filter>
</defs>
</svg>
