<svg width="1440" height="1024" viewBox="0 0 1440 1024" fill="none" xmlns="http://www.w3.org/2000/svg">
<path d="M712.5 704.5C648 935 570 939.456 475.5 968.456C368.5 968.456 273 967.934 273 785.956C273 603.978 619 362 681 390C743 418 777 474 712.5 704.5Z" fill="#BFDA4E"/>
<path d="M518.861 415.126L57.9985 748.516C73.4085 784.366 95.9634 816.241 126.373 840.001C126.373 840.001 141.66 859.418 175.533 883.347L622.085 415.126H518.861Z" fill="#BFDA4E"/>
<path d="M622.085 415.126L175.533 883.347C212.691 909.598 272.222 941.276 358.503 958.712L717.603 415.126H622.085Z" fill="#93C74B"/>
<path d="M373.633 415.126L34.4375 575.487C27.9623 632.877 35.0475 695.11 57.9985 748.516L518.861 415.126H373.633Z" fill="#93C74B"/>
<path d="M110.051 415.126C68.5349 446.943 42.0727 507.865 34.4375 575.487L373.633 415.126H110.051Z" fill="#BFDA4E"/>
<path d="M717.588 415.126L450.005 820.829L415.172 873.64L421.442 883.347C421.442 883.347 463.442 811.099 472.742 801.808C482.041 792.517 497.078 784.016 510.031 758.896C522.985 733.776 513.166 745.943 526.516 723.177C539.865 700.411 564.991 663.515 572.441 650.955C579.89 638.395 582.253 638.788 589.712 626.228C597.17 613.668 602.272 605.033 607.382 596.018C612.492 587.004 655.464 513.004 656.838 511.627C658.211 510.25 669.4 494.749 673.715 487.294C678.03 479.838 699.229 446.47 702.763 442.939C706.297 439.408 719.509 415.137 719.509 415.137L717.588 415.126Z" fill="#76AE28"/>
<path d="M622.085 415.126L466.794 577.952C466.794 577.952 498.634 556.007 504.924 549.709C511.214 543.41 514.044 535.655 518.861 530.847C523.677 526.039 529.431 517.652 535.641 514.069C541.852 510.487 564.13 485.142 568.935 478.51C573.74 471.878 573.92 473.095 580.723 463.69C587.526 454.285 621.369 420.085 621.369 420.085L625.907 415.14L622.085 415.126Z" fill="#76AE28"/>
<path d="M518.861 415.126L409.375 494.325C409.375 494.325 428.359 488.465 432.44 486.108C436.521 483.751 443.433 475.116 448.275 470.274C453.117 465.431 459.675 460.971 464.118 456.531C468.561 452.091 508.914 426.113 510.94 424.084C512.967 422.054 522.586 415.123 522.586 415.123L518.861 415.126Z" fill="#76AE28"/>
<path d="M67.851 769.031C67.851 769.031 80.0176 763.647 88.371 748.511C96.7243 733.374 104.228 723.396 110.057 720.033C115.885 716.67 128.764 708.117 135.829 701.052C142.894 693.987 248.49 616.669 248.49 616.669L222.144 629.779L57.9985 748.516L67.851 769.031Z" fill="#76AE28"/>
<path d="M34.4376 575.487L228.334 483.817C228.334 483.817 222.634 495.305 216.846 495.305C211.058 495.305 127.698 539.395 121.049 543.234C114.4 547.072 115.54 544.345 110.652 549.236C105.765 554.126 33.2178 588.383 33.2178 588.383L34.4376 575.487Z" fill="#76AE28"/>
<path d="M326 416H720C720 416 689.5 382 662 366C634.5 350 618.567 344.5 596 344.5C573.433 344.5 495.09 376.498 482.431 384.423C469.771 392.348 416.601 400.811 383.321 400.811C355.299 400.816 332.507 412.351 326 416Z" fill="#78C1E5"/>
<path d="M680.194 396.297C680.194 396.297 554.588 370 544.776 370C534.963 370 569.015 379.034 569.015 379.034C569.015 379.034 610.625 390.187 638.934 400.897C667.243 411.607 680.194 396.297 680.194 396.297Z" fill="#52ADD1"/>
<path d="M604.5 415.123H110.051C129.317 400.36 151.823 391.859 177.191 391.859C177.191 383.557 180.611 372.618 187.106 360.486C187.106 360.486 386.746 264.039 446.559 298.572C506.372 333.106 526.5 360.486 526.5 360.486L604.5 415.123Z" fill="#1CA3E5"/>
<path d="M439.83 535.131L452.085 569.73C452.085 569.73 535.02 565.492 546.001 565.492C559.607 579.101 547.859 591.544 547.859 591.544C547.859 591.544 447.414 620.785 421.442 605.794C395.47 590.803 395.473 553.576 395.473 553.576L430.382 535.134L439.83 535.131Z" fill="#F8877F"/>
<path d="M430.391 747.282C430.391 782.728 429.354 943.505 429.194 968.528C413.773 967.333 362.532 960.975 357.2 959.658C355.966 930.172 347.134 711.358 347.134 696.754V663.786L373.043 657.385L413.864 647.301C413.864 647.301 430.391 708.813 430.391 747.282Z" fill="#02232B"/>
<path d="M367.611 732.858C367.611 732.858 388.761 761.122 388.761 791.999V865.255C388.761 875.723 383.246 962.6 383.246 962.6L368.788 961.46L367.611 732.858Z" fill="#021418"/>
<path d="M373.043 656.72V961.468C366.437 965.393 267.417 934.886 253.212 925.401C242.453 870.456 223.096 763.621 227.328 725.802C233.122 673.989 245.853 641.806 245.853 641.806L373.043 656.72Z" fill="#023240"/>
<path d="M354.635 418.66C354.635 418.66 399.471 420.966 412.556 448.705C425.64 476.444 444.476 531.392 444.476 531.392C444.476 531.392 412.63 558.333 403.131 552.849C393.632 547.366 354.635 418.66 354.635 418.66Z" fill="#FE4775"/>
<path d="M391.619 463.858C391.619 463.858 425.021 522.309 425.021 545.682C401.042 563.295 399.557 561.724 399.557 559.108C399.557 556.492 391.619 463.858 391.619 463.858Z" fill="#DD1F56"/>
<path d="M294.805 421.869C294.805 421.869 274.425 416.426 260.158 422.901C242.408 430.958 229.845 455.371 227.816 507.304C224.151 600.983 242.47 662.215 242.47 662.215C242.47 662.215 397.379 680.011 421.45 650.18C415.693 578.479 409.153 426.973 374.611 419.122C340.069 411.27 294.805 421.869 294.805 421.869Z" fill="#FE4775"/>
<path d="M238.09 644.021C238.09 644.021 346.789 623.86 357.22 623.86H378.202L376.258 610.057L234.924 627.035L238.09 644.021Z" fill="#DD1F56"/>
<path d="M249.271 488.978C249.271 488.978 261.568 527.37 261.568 549.398C261.568 571.426 260.143 592.473 260.143 592.473L346.342 596.215C346.342 596.215 238.042 613.685 234.622 611.708C231.202 609.73 228.352 569.317 228.352 560.943C228.352 552.57 245.491 497.796 247.98 495.308C250.468 492.82 249.271 488.978 249.271 488.978Z" fill="#DD1F56"/>
<path d="M342.685 407.953L341.639 386.495C341.639 386.495 361.526 387.019 370.159 371.056C378.792 355.094 354.983 287.321 328.03 290.723C301.078 294.126 283.55 312.07 287.737 349.277C291.924 386.484 291.924 401.933 291.924 401.933C291.924 401.933 307.362 430.373 321.492 430.373C335.623 430.373 342.685 407.953 342.685 407.953Z" fill="#F8877F"/>
<path d="M200.074 586.853C200.074 586.853 199.948 624.758 214.791 633.331C229.634 641.903 364.416 619.3 364.416 619.3L358.511 593.06C358.511 593.06 253.483 598.435 251.388 598.435C246.982 568.604 244.044 563.303 244.044 563.303L200.074 586.853Z" fill="#F8877F"/>
<path d="M345.25 593.738C345.25 593.738 374.605 581.064 376.982 583.43C379.359 585.795 401.577 594.092 402.102 594.613C402.626 595.135 394.64 620.084 388.775 621.48C382.91 622.877 357.22 620.477 357.22 620.477L345.25 593.738Z" fill="#F8877F"/>
<path d="M260.155 422.901C260.155 422.901 209.758 428.279 203.477 469.105C197.195 509.931 182.281 609.624 197.207 594.71C235.682 578.223 252.614 568.442 252.614 568.442C252.614 568.442 249.145 520.972 252.614 509.564C256.082 498.155 260.155 422.901 260.155 422.901Z" fill="#FE4775"/>
<path d="M273.547 412.735L291.054 395.225C291.054 395.225 321.492 425.663 321.492 430.374C321.492 435.085 306.838 450.782 306.838 450.782C306.838 450.782 268.517 429.114 273.547 412.735Z" fill="white"/>
<path d="M321.492 430.374C321.492 430.374 339.809 405.074 341.642 399.841C351.332 414.496 354.635 418.651 354.635 418.651C354.635 418.651 348.966 446.339 343.734 446.339C338.501 446.339 321.492 430.374 321.492 430.374Z" fill="white"/>
<path d="M305.792 343.32C305.792 343.32 295.324 350.699 300.559 360.486C305.795 370.273 312.857 367.132 312.857 367.132V374.981C312.857 374.981 289.436 376.161 288.259 374.981C287.081 373.801 268.653 352.466 273.091 331.02C277.528 309.573 285.916 317.414 285.916 317.414C285.916 317.414 281.205 291.764 302.662 283.134C324.12 274.504 345.053 283.658 359.184 278.164C373.314 272.669 369.914 286.799 363.895 292.815C357.875 298.832 354.646 307.47 354.646 307.47C354.646 307.47 362.552 321.6 346.361 321.6C344.52 335.725 321.755 350.907 305.792 343.32Z" fill="#2A2038"/>
<path d="M369.552 618.226L426.13 549.241C426.93 548.265 427.937 547.479 429.079 546.942C430.221 546.404 431.469 546.129 432.731 546.135L554.101 546.691C556.236 546.691 563.315 549.923 564.729 551.108C568.149 553.958 563.834 556.891 560.454 560.758L501.743 628.075C500.955 628.979 499.985 629.705 498.896 630.207C497.807 630.708 496.624 630.974 495.425 630.985L378.495 634.405C377.102 634.405 373.533 631.817 372.419 631.27C367.765 629.033 365.87 622.72 369.552 618.226Z" fill="#302A29"/>
<path d="M375.922 621.497L432.497 552.513C433.297 551.537 434.304 550.751 435.446 550.214C436.588 549.677 437.836 549.401 439.098 549.407L560.468 549.962C567.738 549.997 571.606 558.552 566.826 564.03L508.116 631.347C507.328 632.251 506.358 632.977 505.269 633.478C504.18 633.979 502.996 634.244 501.798 634.254L382.571 635.368C375.36 635.434 371.353 627.066 375.922 621.497Z" fill="#FFDFDB"/>
<path d="M553.642 584.191C553.642 584.191 549.527 591.059 543.844 591.059C538.161 591.059 509.572 579.511 501.524 592.718C498.574 597.563 504.417 608.692 505.514 613.879C507.404 622.848 518.014 622.911 523.09 622.911C531.098 622.911 545.605 611.693 555.435 601.875C565.264 592.057 561.294 576.55 553.642 584.191Z" fill="#F8877F"/>
<path d="M324.391 438.405C324.391 438.405 352.589 543.023 350.799 572.6L353.934 580.58L356.288 578.226C356.288 578.226 349.656 523.74 340.043 480.967C336.301 464.337 335.791 445.798 329.541 438.419C321.492 430.374 324.391 438.405 324.391 438.405Z" fill="#DD1F56"/>
<path d="M341.642 386.495C341.642 386.495 322.801 384.571 321.492 379.085C325.155 393.215 342.067 395.233 342.067 395.233L341.642 386.495Z" fill="#EA716E"/>
<path d="M256.073 744.897C256.073 744.897 283.017 732.337 287.338 710.879C294.802 710.879 294.802 712.974 294.802 712.974C294.802 712.974 296.985 745.33 259.257 748.516L256.073 744.897Z" fill="#021418"/>
<path d="M472.93 887.311V970.99C464.195 970.38 456.625 969.733 451.415 969.254V887.317L472.93 887.311Z" fill="white"/>
<path d="M517.122 842.05V972.7C510.154 972.723 502.824 972.543 495.607 972.25V842.05H517.122Z" fill="white"/>
<path d="M561.816 810.384V969.354C553.451 970.243 546.044 971.013 540.301 971.594V810.384H561.816Z" fill="white"/>
<path d="M644.739 747.507C644.472 747.24 644.11 747.09 643.732 747.09C643.354 747.09 642.992 747.24 642.724 747.507L594.528 795.715L552.784 780.077C552.561 779.994 552.32 779.968 552.084 780.002C551.848 780.035 551.624 780.128 551.433 780.271L505.622 814.414L450.791 840.776C450.613 840.851 450.452 840.962 450.318 841.101C450.184 841.24 450.08 841.404 450.011 841.585C449.943 841.766 449.912 841.958 449.92 842.151C449.929 842.344 449.976 842.533 450.06 842.707C450.143 842.882 450.262 843.037 450.407 843.164C450.553 843.291 450.723 843.387 450.907 843.446C451.09 843.505 451.284 843.526 451.477 843.508C451.669 843.49 451.856 843.434 452.025 843.341L506.982 816.919C507.063 816.878 507.142 816.83 507.216 816.776L552.513 783.015L594.388 798.705C594.645 798.8 594.923 798.82 595.19 798.762C595.458 798.704 595.703 798.57 595.896 798.377L644.739 749.531C644.873 749.398 644.979 749.241 645.051 749.067C645.124 748.893 645.161 748.707 645.161 748.519C645.161 748.331 645.124 748.145 645.051 747.971C644.979 747.797 644.873 747.64 644.739 747.507Z" fill="white"/>
<path d="M458.033 850.86C462.872 850.86 466.794 846.937 466.794 842.099C466.794 837.26 462.872 833.338 458.033 833.338C453.195 833.338 449.272 837.26 449.272 842.099C449.272 846.937 453.195 850.86 458.033 850.86Z" fill="white"/>
<path d="M506.363 824.386C511.202 824.386 515.124 820.464 515.124 815.625C515.124 810.787 511.202 806.864 506.363 806.864C501.525 806.864 497.602 810.787 497.602 815.625C497.602 820.464 501.525 824.386 506.363 824.386Z" fill="white"/>
<path d="M551.06 789.927C555.898 789.927 559.821 786.004 559.821 781.166C559.821 776.327 555.898 772.405 551.06 772.405C546.221 772.405 542.299 776.327 542.299 781.166C542.299 786.004 546.221 789.927 551.06 789.927Z" fill="white"/>
<path d="M688.644 448.679C673.661 423.767 654.444 404.088 631.601 390.077C608.758 376.067 582.35 367.725 553.012 365.433C547.338 364.992 541.829 364.798 536.536 364.798C502.92 364.798 478.034 372.573 474.862 373.61C474.717 373.654 474.581 373.726 474.464 373.823C474.347 373.92 474.25 374.039 474.18 374.174C474.109 374.309 474.066 374.457 474.054 374.608C474.041 374.76 474.059 374.912 474.107 375.057C474.154 375.201 474.23 375.335 474.33 375.45C474.429 375.565 474.551 375.658 474.688 375.725C474.824 375.792 474.973 375.831 475.125 375.84C475.277 375.849 475.429 375.827 475.572 375.776C478.593 374.787 503.274 367.078 536.536 367.078C541.772 367.078 547.224 367.269 552.835 367.708C581.854 369.988 607.906 378.21 630.41 392.021C652.913 405.832 671.877 425.215 686.68 449.853C686.757 449.982 686.859 450.094 686.979 450.183C687.099 450.272 687.236 450.336 687.381 450.373C687.527 450.409 687.678 450.416 687.826 450.394C687.974 450.372 688.116 450.321 688.245 450.244C688.373 450.167 688.485 450.065 688.574 449.945C688.663 449.824 688.728 449.688 688.764 449.542C688.8 449.397 688.807 449.246 688.785 449.098C688.763 448.95 688.712 448.807 688.635 448.679H688.644Z" fill="white"/>
<path d="M616.499 417.959C597.016 406.1 574.604 399.149 549.988 397.239C545.183 396.866 540.518 396.704 536.023 396.704C507.289 396.704 486.028 403.367 483.469 404.202C483.189 404.302 482.959 404.507 482.828 404.774C482.697 405.041 482.675 405.348 482.768 405.631C482.86 405.914 483.06 406.149 483.323 406.287C483.587 406.424 483.894 406.453 484.179 406.368C486.584 405.581 507.643 398.984 536.023 398.984C540.452 398.984 545.061 399.146 549.803 399.514C574.105 401.403 596.147 408.249 615.305 419.905C634.462 431.562 650.739 448.035 663.487 469.227C663.56 469.362 663.661 469.481 663.781 469.576C663.902 469.67 664.041 469.74 664.189 469.78C664.337 469.82 664.492 469.83 664.644 469.809C664.796 469.787 664.942 469.736 665.074 469.657C665.205 469.577 665.32 469.472 665.41 469.348C665.5 469.224 665.564 469.082 665.598 468.933C665.632 468.783 665.635 468.628 665.608 468.477C665.581 468.326 665.523 468.182 665.439 468.053C652.531 446.57 635.981 429.812 616.499 417.959Z" fill="white"/>
<path d="M601.394 445.835C585.257 436.145 566.86 430.582 546.959 429.045C543.023 428.743 539.198 428.609 535.522 428.609C511.67 428.609 494.029 434.161 492.091 434.794C491.943 434.836 491.806 434.907 491.687 435.004C491.567 435.1 491.469 435.22 491.397 435.355C491.325 435.49 491.281 435.639 491.268 435.791C491.254 435.944 491.272 436.098 491.32 436.244C491.367 436.389 491.444 436.524 491.544 436.64C491.645 436.755 491.768 436.849 491.906 436.916C492.044 436.983 492.194 437.021 492.347 437.029C492.5 437.036 492.654 437.013 492.797 436.96C494.587 436.373 512.023 430.889 535.522 430.889C539.144 430.889 542.909 431.02 546.782 431.32C566.367 432.83 584.402 438.288 600.214 447.79C616.026 457.292 629.614 470.843 640.293 488.602C640.37 488.73 640.472 488.842 640.592 488.931C640.713 489.02 640.85 489.085 640.995 489.121C641.14 489.157 641.291 489.165 641.439 489.143C641.587 489.12 641.73 489.069 641.858 488.992C641.986 488.915 642.098 488.814 642.187 488.693C642.277 488.573 642.341 488.436 642.377 488.291C642.414 488.146 642.421 487.995 642.399 487.846C642.377 487.698 642.326 487.556 642.249 487.428C631.39 469.39 617.53 455.533 601.394 445.835Z" fill="white"/>
<path d="M586.286 473.713C573.495 466.17 559.111 462.009 543.938 460.851C540.871 460.618 537.893 460.518 535.026 460.518C516.05 460.518 502.034 464.955 500.712 465.386C500.566 465.43 500.431 465.502 500.313 465.599C500.196 465.696 500.099 465.815 500.029 465.95C499.959 466.085 499.916 466.232 499.903 466.384C499.891 466.536 499.909 466.688 499.956 466.833C500.004 466.977 500.079 467.111 500.179 467.226C500.279 467.34 500.401 467.434 500.537 467.501C500.674 467.568 500.822 467.607 500.974 467.616C501.126 467.625 501.278 467.603 501.421 467.552C502.593 467.167 516.407 462.795 535.026 462.795C537.839 462.795 540.76 462.895 543.767 463.123C558.635 464.263 572.666 468.327 585.129 475.663C597.592 482.999 608.499 493.641 617.106 507.962C617.182 508.093 617.283 508.208 617.404 508.299C617.524 508.391 617.662 508.457 617.808 508.495C617.955 508.533 618.108 508.541 618.258 508.519C618.408 508.497 618.551 508.445 618.681 508.367C618.811 508.289 618.924 508.186 619.013 508.064C619.102 507.941 619.166 507.802 619.201 507.655C619.237 507.508 619.242 507.355 619.217 507.206C619.193 507.056 619.139 506.913 619.058 506.785C610.266 492.19 599.077 481.255 586.286 473.713Z" fill="white"/>
<path d="M571.172 501.595C561.725 496.208 551.359 493.444 540.914 492.663C538.714 492.501 536.579 492.429 534.521 492.429C520.425 492.429 510.031 495.758 509.33 495.986C509.053 496.088 508.827 496.293 508.698 496.559C508.57 496.824 508.549 497.129 508.64 497.41C508.732 497.69 508.928 497.924 509.189 498.063C509.449 498.201 509.753 498.233 510.037 498.152C510.59 497.97 520.784 494.709 534.521 494.709C536.516 494.709 538.605 494.781 540.743 494.937C550.906 495.695 560.929 498.38 570.041 503.576C579.152 508.771 587.366 516.478 593.91 527.359C593.987 527.487 594.089 527.599 594.209 527.688C594.33 527.777 594.467 527.842 594.612 527.878C594.758 527.914 594.909 527.921 595.057 527.899C595.205 527.877 595.347 527.825 595.476 527.748C595.604 527.671 595.716 527.569 595.805 527.448C595.894 527.328 595.958 527.191 595.995 527.046C596.031 526.9 596.038 526.749 596.016 526.601C595.993 526.453 595.942 526.31 595.865 526.182C589.133 514.99 580.617 506.97 571.172 501.595Z" fill="white"/>
<path d="M563.905 534.889C559.515 531.017 554.343 528.135 548.74 526.441C543.963 525.01 539 524.297 534.014 524.327C524.797 524.327 518.02 526.547 517.946 526.567C517.658 526.661 517.42 526.865 517.283 527.135C517.146 527.405 517.122 527.718 517.216 528.006C517.31 528.294 517.515 528.532 517.785 528.669C518.055 528.806 518.368 528.83 518.655 528.736C518.692 528.721 525.236 526.604 534.014 526.607C539.768 526.607 546.471 527.513 552.955 530.471C556.389 532.033 559.57 534.099 562.394 536.599C565.671 539.527 568.478 542.941 570.716 546.722C570.79 546.857 570.89 546.975 571.011 547.07C571.132 547.165 571.27 547.235 571.419 547.275C571.567 547.315 571.722 547.324 571.874 547.303C572.026 547.282 572.172 547.23 572.304 547.151C572.435 547.072 572.549 546.967 572.64 546.842C572.73 546.718 572.794 546.577 572.828 546.427C572.862 546.277 572.865 546.122 572.838 545.971C572.811 545.82 572.753 545.676 572.669 545.548C570.311 541.566 567.355 537.971 563.905 534.889Z" fill="white"/>
<path d="M603.81 662.261H606.735C609.533 662.261 611.802 659.992 611.802 657.194V639.295C611.802 636.497 609.533 634.229 606.735 634.229H603.81C601.012 634.229 598.743 636.497 598.743 639.295V657.194C598.743 659.992 601.012 662.261 603.81 662.261Z" fill="#02232B"/>
<path d="M629.574 625.08L606.533 631.597V642.291H610.514V635.941L629.574 629.924V625.08Z" fill="#8BBA4A"/>
<path d="M596 643.913V639.669C595.999 638.901 596.15 638.141 596.444 637.431C596.737 636.721 597.167 636.076 597.71 635.533C598.253 634.99 598.898 634.559 599.607 634.265C600.317 633.971 601.077 633.819 601.845 633.819H608.695C609.464 633.819 610.225 633.97 610.935 634.263C611.645 634.557 612.29 634.988 612.833 635.531C613.377 636.075 613.808 636.72 614.101 637.43C614.395 638.14 614.546 638.901 614.545 639.669V643.928C614.545 644.124 614.535 644.319 614.515 644.514H596.03C596.01 644.314 595.999 644.114 596 643.913Z" fill="#8BBA4A"/>
<path d="M636.652 619.361H639.056C641.361 619.361 643.229 617.493 643.229 615.188V601.74C643.229 599.436 641.361 597.568 639.056 597.568H636.652C634.347 597.568 632.479 599.436 632.479 601.74V615.188C632.479 617.493 634.347 619.361 636.652 619.361Z" fill="#02232B"/>
<path d="M632.045 603.504V600.548C632.045 599.476 632.47 598.449 633.228 597.691C633.986 596.933 635.014 596.507 636.086 596.507H640.84C641.912 596.507 642.94 596.933 643.698 597.691C644.455 598.449 644.881 599.476 644.881 600.548V603.504C644.889 603.638 644.889 603.773 644.881 603.908H632.055C632.055 603.802 632.045 603.64 632.045 603.504Z" fill="#8BBA4A"/>
<path d="M636.541 598.184L649.701 594.461L648.897 598.345L639.425 601.331V602.574L636.541 602.397V598.184Z" fill="#8BBA4A"/>
<path d="M699.052 604.276L680.976 649.041L614.545 648.581L620.597 625.913L646.821 603.812L699.052 604.276Z" fill="#405C19"/>
<path d="M694.01 590.379L674.919 626.287L620.597 625.913L651.297 590L694.01 590.379Z" fill="#8BBA4A"/>
<path d="M705.968 624.519H708.372C710.677 624.519 712.545 622.651 712.545 620.346V606.898C712.545 604.594 710.677 602.725 708.372 602.725H705.968C703.663 602.725 701.795 604.594 701.795 606.898V620.346C701.795 622.651 703.663 624.519 705.968 624.519Z" fill="#02232B"/>
<path d="M699.052 604.276L694.01 590.379L674.919 626.792L680.976 649.04L699.052 604.276Z" fill="#1C2A07"/>
<path d="M713.631 608.661V605.706C713.631 604.634 713.205 603.606 712.447 602.848C711.689 602.09 710.662 601.665 709.59 601.665H704.836C703.764 601.665 702.736 602.09 701.978 602.848C701.22 603.606 700.794 604.634 700.794 605.706V608.661C700.787 608.796 700.787 608.931 700.794 609.066H713.621C713.621 608.934 713.631 608.798 713.631 608.661Z" fill="#8BBA4A"/>
<path d="M709.135 603.342L695.975 599.618L696.778 603.503L706.25 606.494V607.737L709.135 607.555V603.342Z" fill="#8BBA4A"/>
<path d="M651.509 592.93L687.983 593.198L674.565 621.109L628.124 620.846L651.509 592.93Z" fill="#1CA3E5"/>
<path d="M661.613 593.001L681.532 606.62L679.789 610.237L653.959 592.945L661.613 593.001Z" fill="#D2EDFA"/>
<path d="M640.688 605.848L662.916 621.043L655.702 621.003L637.945 609.121L640.688 605.848Z" fill="#D2EDFA"/>
<path d="M693.207 669H696.132C698.93 669 701.199 666.731 701.199 663.933V646.035C701.199 643.236 698.93 640.968 696.132 640.968H693.207C690.408 640.968 688.14 643.236 688.14 646.035V663.933C688.14 666.731 690.408 669 693.207 669Z" fill="#02232B"/>
<path d="M679.824 632.551L696.748 637.34V648.03H692.767V641.69L679.163 637.396C678.893 635.751 679.124 634.064 679.824 632.551Z" fill="#8BBA4A"/>
<path d="M683.714 650.652V646.388C683.714 644.837 684.331 643.349 685.428 642.252C686.525 641.155 688.013 640.538 689.564 640.538H696.409C697.961 640.538 699.449 641.155 700.546 642.252C701.643 643.349 702.259 644.837 702.259 646.388V650.652C702.26 650.846 702.249 651.04 702.229 651.233H683.745C683.724 651.04 683.714 650.846 683.714 650.652Z" fill="#8BBA4A"/>
<path d="M94.3844 324.858C91.03 335.018 98.3146 348.633 106.135 355.675C114.081 362.82 124.612 361.09 133.449 356.53C144.895 350.622 156.281 339.031 151.045 325.149C149.335 320.614 145.322 315.402 140.936 313.13C133.957 309.511 125.985 311.631 118.421 312.107C112.75 312.463 106.944 313.264 101.985 316.037C97.9298 318.292 95.5301 321.372 94.3844 324.858Z" fill="#1CA3E5"/>
<path d="M531.01 754.484C558.211 754.484 580.261 732.434 580.261 705.233C580.261 678.033 558.211 655.982 531.01 655.982C503.81 655.982 481.759 678.033 481.759 705.233C481.759 732.434 503.81 754.484 531.01 754.484Z" fill="white"/>
<path d="M146.477 809.934C184.749 809.934 215.775 778.908 215.775 740.636C215.775 702.364 184.749 671.338 146.477 671.338C108.205 671.338 77.179 702.364 77.179 740.636C77.179 778.908 108.205 809.934 146.477 809.934Z" fill="white"/>
<path d="M130.776 634.713C154.152 634.713 173.101 615.763 173.101 592.387C173.101 569.012 154.152 550.062 130.776 550.062C107.4 550.062 88.4507 569.012 88.4507 592.387C88.4507 615.763 107.4 634.713 130.776 634.713Z" fill="white"/>
<path d="M192.752 733.3L192.709 750.719L184.992 750.699C183.673 747.614 181.479 744.983 178.681 743.132C175.883 741.28 172.604 740.288 169.249 740.28C165.894 740.271 162.61 741.246 159.802 743.084C156.995 744.921 154.788 747.541 153.454 750.619L144.299 750.594C144.309 746.499 143.268 742.47 141.277 738.892C139.285 735.314 136.409 732.307 132.923 730.158C129.437 728.009 125.459 726.79 121.368 726.618C117.276 726.445 113.209 727.325 109.555 729.173L109.598 712.806C109.604 710.072 110.695 707.453 112.632 705.524C114.569 703.595 117.193 702.515 119.926 702.52L142.059 702.58C143.211 702.582 144.334 702.939 145.276 703.601C146.218 704.264 146.933 705.201 147.323 706.285L154.3 725.642L185.188 725.722C187.196 725.724 189.121 726.524 190.539 727.945C191.958 729.366 192.754 731.292 192.752 733.3Z" fill="#76AE28"/>
<path d="M181.862 750.625C180.209 747.557 177.492 745.199 174.222 743.995C170.952 742.79 167.354 742.822 164.106 744.084C160.858 745.347 158.183 747.753 156.584 750.85C154.986 753.946 154.574 757.521 155.427 760.9C156.279 764.279 158.337 767.23 161.214 769.198C164.09 771.165 167.586 772.014 171.044 771.584C174.503 771.155 177.685 769.476 179.992 766.864C182.299 764.252 183.573 760.888 183.572 757.403C183.572 755.037 182.985 752.708 181.862 750.625ZM169.285 764.488C167.587 764.488 165.945 763.878 164.659 762.769C163.373 761.661 162.527 760.127 162.277 758.447C162.027 756.767 162.388 755.054 163.295 753.618C164.202 752.182 165.595 751.12 167.219 750.625C168.565 750.211 170.005 750.211 171.352 750.625C172.976 751.12 174.369 752.182 175.276 753.618C176.183 755.054 176.544 756.767 176.294 758.447C176.043 760.127 175.198 761.661 173.912 762.769C172.625 763.878 170.983 764.488 169.285 764.488Z" fill="#76AE28"/>
<path d="M120.416 730.41C116.418 730.408 112.508 731.591 109.182 733.811C105.857 736.031 103.264 739.188 101.732 742.881C100.2 746.575 99.7982 750.64 100.577 754.562C101.356 758.484 103.28 762.087 106.107 764.915C108.933 767.743 112.535 769.67 116.457 770.451C120.379 771.232 124.444 770.832 128.138 769.302C131.833 767.773 134.991 765.182 137.212 761.857C139.434 758.533 140.62 754.624 140.62 750.625C140.631 747.968 140.116 745.336 139.105 742.879C138.093 740.422 136.606 738.19 134.728 736.311C132.849 734.431 130.618 732.943 128.162 731.93C125.705 730.917 123.073 730.401 120.416 730.41ZM120.416 762.205C118.126 762.204 115.886 761.524 113.982 760.251C112.078 758.978 110.593 757.169 109.717 755.052C108.841 752.935 108.612 750.606 109.06 748.36C109.507 746.113 110.611 744.05 112.231 742.43C113.851 740.811 115.916 739.708 118.162 739.262C120.409 738.815 122.738 739.045 124.854 739.923C126.97 740.8 128.779 742.285 130.051 744.19C131.323 746.095 132.002 748.334 132.002 750.625C132.002 752.146 131.702 753.652 131.12 755.058C130.537 756.463 129.684 757.74 128.608 758.815C127.532 759.89 126.255 760.743 124.849 761.325C123.444 761.906 121.937 762.205 120.416 762.205Z" fill="#76AE28"/>
<path d="M544.16 701.625L553.822 697.282L562.087 705.547C562.304 705.779 562.566 705.965 562.856 706.093C563.147 706.222 563.461 706.291 563.778 706.296C564.096 706.302 564.412 706.243 564.707 706.124C565.001 706.004 565.269 705.827 565.494 705.602C565.719 705.377 565.896 705.11 566.015 704.815C566.134 704.52 566.193 704.205 566.188 703.887C566.183 703.569 566.114 703.255 565.985 702.965C565.856 702.674 565.67 702.412 565.438 702.195L556.033 692.79C555.694 692.449 555.26 692.22 554.787 692.133C554.314 692.046 553.826 692.105 553.388 692.303L542.233 697.319C541.661 697.577 541.213 698.051 540.991 698.639C540.768 699.226 540.787 699.878 541.045 700.451C541.303 701.024 541.778 701.471 542.365 701.694C542.952 701.917 543.604 701.897 544.177 701.639L544.16 701.625Z" fill="#3E610D"/>
<path d="M556.016 705.156C555.677 704.817 555.242 704.588 554.769 704.502C554.297 704.415 553.809 704.474 553.371 704.672L542.216 709.688C541.643 709.945 541.196 710.42 540.973 711.008C540.751 711.595 540.77 712.247 541.028 712.82C541.286 713.393 541.76 713.84 542.348 714.063C542.935 714.286 543.587 714.266 544.16 714.008L553.822 709.662L562.087 717.927C562.531 718.372 563.133 718.621 563.761 718.622C564.39 718.622 564.992 718.373 565.437 717.929C565.881 717.484 566.131 716.882 566.131 716.254C566.132 715.625 565.882 715.023 565.438 714.578L556.016 705.156Z" fill="#3E610D"/>
<path d="M556.016 716.2C555.677 715.859 555.242 715.631 554.769 715.544C554.297 715.458 553.809 715.517 553.371 715.715L542.216 720.729C541.643 720.986 541.196 721.461 540.973 722.049C540.751 722.636 540.77 723.288 541.028 723.861C541.286 724.434 541.76 724.881 542.348 725.104C542.935 725.327 543.587 725.307 544.16 725.049L553.822 720.706L562.087 728.971C562.306 729.191 562.568 729.365 562.855 729.485C563.142 729.604 563.45 729.665 563.761 729.665C564.072 729.665 564.381 729.604 564.668 729.485C564.955 729.366 565.217 729.192 565.437 728.972C565.657 728.752 565.831 728.491 565.951 728.204C566.07 727.917 566.131 727.608 566.131 727.297C566.131 726.986 566.07 726.678 565.951 726.391C565.832 726.103 565.658 725.842 565.438 725.622L556.016 716.2Z" fill="#3E610D"/>
<path d="M519.804 697.305L508.649 692.289C508.211 692.091 507.723 692.032 507.25 692.119C506.778 692.206 506.343 692.435 506.004 692.776L496.599 702.181C496.367 702.398 496.181 702.66 496.053 702.951C495.924 703.241 495.855 703.555 495.849 703.873C495.844 704.191 495.903 704.506 496.022 704.801C496.142 705.096 496.319 705.363 496.544 705.588C496.768 705.813 497.036 705.99 497.331 706.109C497.626 706.229 497.941 706.287 498.259 706.282C498.577 706.277 498.89 706.208 499.181 706.079C499.472 705.95 499.734 705.765 499.951 705.533L508.216 697.268L517.877 701.611C518.161 701.739 518.467 701.809 518.778 701.818C519.089 701.828 519.399 701.776 519.69 701.665C519.98 701.555 520.247 701.388 520.473 701.175C520.7 700.962 520.882 700.706 521.009 700.422C521.137 700.139 521.208 699.833 521.217 699.522C521.226 699.211 521.174 698.901 521.064 698.61C520.954 698.319 520.787 698.053 520.574 697.827C520.361 697.6 520.105 697.418 519.821 697.29L519.804 697.305Z" fill="#3E610D"/>
<path d="M519.804 709.688L508.649 704.672C508.211 704.474 507.724 704.415 507.251 704.502C506.779 704.588 506.344 704.817 506.004 705.156L496.599 714.561C496.155 715.006 495.906 715.608 495.906 716.237C495.906 716.865 496.156 717.467 496.601 717.911C497.045 718.355 497.648 718.605 498.276 718.605C498.904 718.604 499.507 718.354 499.951 717.91L508.216 709.645L517.877 713.991C518.45 714.249 519.102 714.269 519.69 714.046C520.277 713.823 520.752 713.376 521.009 712.803C521.267 712.23 521.287 711.578 521.064 710.991C520.841 710.403 520.394 709.928 519.821 709.671L519.804 709.688Z" fill="#3E610D"/>
<path d="M519.804 720.737L508.649 715.724C508.211 715.526 507.723 715.466 507.251 715.553C506.778 715.639 506.343 715.868 506.004 716.209L496.599 725.614C496.155 726.058 495.906 726.661 495.906 727.289C495.906 727.917 496.156 728.52 496.601 728.964C497.045 729.408 497.648 729.657 498.276 729.657C498.904 729.657 499.507 729.407 499.951 728.962L508.216 720.697L517.877 725.041C518.161 725.168 518.467 725.239 518.778 725.248C519.089 725.258 519.399 725.206 519.69 725.095C519.98 724.985 520.247 724.818 520.473 724.605C520.7 724.392 520.882 724.136 521.009 723.852C521.137 723.569 521.208 723.263 521.217 722.952C521.226 722.641 521.174 722.331 521.064 722.04C520.954 721.749 520.787 721.483 520.574 721.257C520.36 721.03 520.105 720.848 519.821 720.72L519.804 720.737Z" fill="#3E610D"/>
<path d="M550.581 710.375C550.58 705.734 548.901 701.251 545.855 697.751C542.808 694.251 538.599 691.971 534.003 691.331V729.418C538.599 728.779 542.809 726.499 545.856 722.999C548.903 719.499 550.581 715.015 550.581 710.375Z" fill="#76AE28"/>
<path d="M512.129 710.375C512.129 715.056 513.838 719.577 516.933 723.088C520.029 726.6 524.299 728.862 528.944 729.45V691.3C524.3 691.888 520.03 694.15 516.934 697.662C513.838 701.173 512.13 705.693 512.129 710.375Z" fill="#76AE28"/>
<path d="M521.705 684.457C522.262 686.097 523.386 687.484 524.875 688.368C526.365 689.252 528.121 689.575 529.827 689.279L525.21 675.684C523.677 676.489 522.481 677.815 521.839 679.424C521.196 681.032 521.149 682.817 521.705 684.457Z" fill="#76AE28"/>
<path d="M542.125 684.354C541.568 685.994 540.444 687.381 538.955 688.265C537.465 689.15 535.709 689.473 534.003 689.176L538.62 675.582C540.153 676.387 541.349 677.713 541.991 679.321C542.634 680.929 542.681 682.714 542.125 684.354Z" fill="#76AE28"/>
<path d="M143.003 595.488C142.954 598.698 141.644 601.76 139.357 604.013C137.069 606.265 133.988 607.528 130.778 607.528C127.567 607.528 124.486 606.265 122.198 604.013C119.911 601.76 118.601 598.698 118.552 595.488C118.552 588.737 130.776 569.052 130.776 569.052C130.776 569.052 143.003 588.737 143.003 595.488Z" fill="#76AE28"/>
</svg>
